<svg version="1.1" viewBox="0.0 0.0 702.9422572178478 291.1758530183727" fill="none" stroke="none" stroke-linecap="square" stroke-miterlimit="10" xmlns:xlink="http://www.w3.org/1999/xlink" xmlns="http://www.w3.org/2000/svg"><clipPath id="p.0"><path d="m0 0l702.94226 0l0 291.17584l-702.94226 0l0 -291.17584z" clip-rule="nonzero"/></clipPath><g clip-path="url(#p.0)"><path fill="#000000" fill-opacity="0.0" d="m0 0l702.94226 0l0 291.17584l-702.94226 0z" fill-rule="evenodd"/><path fill="#aa7742" d="m354.66666 61.036747l55.77954 0l0 223.08661l-55.77954 0z" fill-rule="evenodd"/><path stroke="#000000" stroke-width="1.0" stroke-linejoin="round" stroke-linecap="butt" d="m354.66666 61.036747l55.77954 0l0 223.08661l-55.77954 0z" fill-rule="evenodd"/><path fill="#b7b7b7" d="m342.00787 61.036747l12.661407 0l0 223.08661l-12.661407 0z" fill-rule="evenodd"/><path stroke="#000000" stroke-width="1.0" stroke-linejoin="round" stroke-linecap="butt" d="m342.00787 61.036747l12.661407 0l0 223.08661l-12.661407 0z" fill-rule="evenodd"/><path fill="#b7b7b7" d="m410.4462 61.036747l12.661407 0l0 223.08661l-12.661407 0z" fill-rule="evenodd"/><path stroke="#000000" stroke-width="1.0" stroke-linejoin="round" stroke-linecap="butt" d="m410.4462 61.036747l12.661407 0l0 223.08661l-12.661407 0z" fill-rule="evenodd"/><path fill="#b7b7b7" d="m513.4908 61.036747l30.425232 0l0 30.61417l-30.425232 0z" fill-rule="evenodd"/><path stroke="#000000" stroke-width="1.0" stroke-linejoin="round" stroke-linecap="butt" d="m513.4908 61.036747l30.425232 0l0 30.61417l-30.425232 0z" fill-rule="evenodd"/><path fill="#aa7742" d="m513.4908 117.60105l30.425232 0l0 30.614174l-30.425232 0z" fill-rule="evenodd"/><path stroke="#000000" stroke-width="1.0" stroke-linejoin="round" stroke-linecap="butt" d="m513.4908 117.60105l30.425232 0l0 30.614174l-30.425232 0z" fill-rule="evenodd"/><path fill="#000000" fill-opacity="0.0" d="m559.16797 117.60105l174.07874 0l0 30.614174l-174.07874 0z" fill-rule="evenodd"/><path fill="#000000" d="m571.41797 137.16814l2.171875 -6.953125l0.953125 0l-0.1875 1.375l-2.21875 7.078125l-0.921875 0l0.203125 -1.5zm-1.46875 -6.953125l1.859375 7.03125l0.125 1.421875l-0.96875 0l-2.453125 -8.453125l1.4375 0zm6.671875 6.96875l1.765625 -6.96875l1.4375 0l-2.453125 8.453125l-0.96875 0l0.21875 -1.484375zm-1.875 -6.96875l2.125 6.828125l0.25 1.625l-0.921875 0l-2.28125 -7.09375l-0.1875 -1.359375l1.015625 0zm6.1640625 4.3125l0 -0.171875q0 -0.921875 0.265625 -1.703125q0.265625 -0.78125 0.765625 -1.359375q0.5 -0.59375 1.203125 -0.90625q0.71875 -0.328125 1.609375 -0.328125q0.890625 0 1.59375 0.328125q0.71875 0.3125 1.21875 0.90625q0.515625 0.578125 0.78125 1.359375q0.265625 0.78125 0.265625 1.703125l0 0.171875q0 0.921875 -0.265625 1.703125q-0.265625 0.78125 -0.78125 1.359375q-0.5 0.578125 -1.203125 0.90625q-0.703125 0.328125 -1.59375 0.328125q-0.890625 0 -1.609375 -0.328125q-0.703125 -0.328125 -1.21875 -0.90625q-0.5 -0.578125 -0.765625 -1.359375q-0.265625 -0.78125 -0.265625 -1.703125zm1.453125 -0.171875l0 0.171875q0 0.640625 0.140625 1.203125q0.15625 0.546875 0.453125 0.984375q0.296875 0.421875 0.75 0.671875q0.453125 0.25 1.0625 0.25q0.59375 0 1.03125 -0.25q0.453125 -0.25 0.75 -0.671875q0.296875 -0.4375 0.453125 -0.984375q0.15625 -0.5625 0.15625 -1.203125l0 -0.171875q0 -0.625 -0.15625 -1.1875q-0.15625 -0.5625 -0.453125 -0.984375q-0.296875 -0.4375 -0.75 -0.6875q-0.453125 -0.25 -1.046875 -0.25q-0.59375 0 -1.046875 0.25q-0.453125 0.25 -0.75 0.6875q-0.296875 0.421875 -0.453125 0.984375q-0.140625 0.5625 -0.140625 1.1875zm7.671875 0.171875l0 -0.171875q0 -0.921875 0.265625 -1.703125q0.265625 -0.78125 0.765625 -1.359375q0.5 -0.59375 1.203125 -0.90625q0.71875 -0.328125 1.609375 -0.328125q0.890625 0 1.59375 0.328125q0.71875 0.3125 1.21875 0.90625q0.515625 0.578125 0.78125 1.359375q0.265625 0.78125 0.265625 1.703125l0 0.171875q0 0.921875 -0.265625 1.703125q-0.265625 0.78125 -0.78125 1.359375q-0.5 0.578125 -1.203125 0.90625q-0.703125 0.328125 -1.59375 0.328125q-0.890625 0 -1.609375 -0.328125q-0.703125 -0.328125 -1.21875 -0.90625q-0.5 -0.578125 -0.765625 -1.359375q-0.265625 -0.78125 -0.265625 -1.703125zm1.453125 -0.171875l0 0.171875q0 0.640625 0.140625 1.203125q0.15625 0.546875 0.453125 0.984375q0.296875 0.421875 0.75 0.671875q0.453125 0.25 1.0625 0.25q0.59375 0 1.03125 -0.25q0.453125 -0.25 0.75 -0.671875q0.296875 -0.4375 0.453125 -0.984375q0.15625 -0.5625 0.15625 -1.203125l0 -0.171875q0 -0.625 -0.15625 -1.1875q-0.15625 -0.5625 -0.453125 -0.984375q-0.296875 -0.4375 -0.75 -0.6875q-0.453125 -0.25 -1.046875 -0.25q-0.59375 0 -1.046875 0.25q-0.453125 0.25 -0.75 0.6875q-0.296875 0.421875 -0.453125 0.984375q-0.140625 0.5625 -0.140625 1.1875zm13.390625 2.671875l0 -10.359375l1.453125 0l0 12.0l-1.328125 0l-0.125 -1.640625zm-5.6875 -2.5l0 -0.15625q0 -0.96875 0.234375 -1.765625q0.234375 -0.796875 0.671875 -1.359375q0.453125 -0.578125 1.0625 -0.875q0.609375 -0.3125 1.375 -0.3125q0.796875 0 1.390625 0.28125q0.59375 0.265625 1.015625 0.796875q0.421875 0.53125 0.65625 1.28125q0.25 0.734375 0.34375 1.671875l0 0.71875q-0.09375 0.921875 -0.34375 1.671875q-0.234375 0.734375 -0.65625 1.265625q-0.421875 0.515625 -1.03125 0.796875q-0.59375 0.28125 -1.390625 0.28125q-0.75 0 -1.359375 -0.3125q-0.609375 -0.328125 -1.0625 -0.90625q-0.4375 -0.578125 -0.671875 -1.359375q-0.234375 -0.796875 -0.234375 -1.71875zm1.453125 -0.15625l0 0.15625q0 0.640625 0.125 1.203125q0.125 0.546875 0.390625 0.96875q0.28125 0.421875 0.703125 0.65625q0.421875 0.234375 1.015625 0.234375q0.71875 0 1.171875 -0.296875q0.46875 -0.3125 0.75 -0.8125q0.28125 -0.5 0.4375 -1.078125l0 -1.890625q-0.09375 -0.421875 -0.265625 -0.828125q-0.171875 -0.40625 -0.453125 -0.71875q-0.28125 -0.3125 -0.6875 -0.5q-0.390625 -0.1875 -0.9375 -0.1875q-0.59375 0 -1.03125 0.25q-0.421875 0.234375 -0.703125 0.671875q-0.265625 0.421875 -0.390625 0.984375q-0.125 0.546875 -0.125 1.1875zm13.8203125 4.296875l-1.4375 0l0 -9.1875q0 -0.96875 0.375 -1.625q0.375 -0.671875 1.0625 -1.015625q0.703125 -0.34375 1.65625 -0.34375q0.5625 0 1.09375 0.140625q0.546875 0.140625 1.109375 0.34375l-0.234375 1.21875q-0.359375 -0.140625 -0.84375 -0.265625q-0.46875 -0.140625 -1.03125 -0.140625q-0.921875 0 -1.34375 0.421875q-0.40625 0.421875 -0.40625 1.265625l0 9.1875zm1.734375 -8.453125l0 1.109375l-4.515625 0l0 -1.109375l4.515625 0zm2.84375 0l0 8.453125l-1.453125 0l0 -8.453125l1.453125 0zm2.3515625 -3.546875l1.453125 0l0 10.359375l-0.125 1.640625l-1.328125 0l0 -12.0zm7.171875 7.703125l0 0.15625q0 0.921875 -0.21875 1.71875q-0.21875 0.78125 -0.640625 1.359375q-0.421875 0.578125 -1.03125 0.90625q-0.609375 0.3125 -1.40625 0.3125q-0.796875 0 -1.40625 -0.28125q-0.609375 -0.28125 -1.03125 -0.796875q-0.40625 -0.53125 -0.65625 -1.265625q-0.234375 -0.75 -0.328125 -1.671875l0 -0.71875q0.09375 -0.9375 0.328125 -1.671875q0.25 -0.75 0.65625 -1.28125q0.421875 -0.53125 1.015625 -0.796875q0.609375 -0.28125 1.40625 -0.28125q0.796875 0 1.40625 0.3125q0.625 0.296875 1.046875 0.875q0.421875 0.5625 0.640625 1.359375q0.21875 0.796875 0.21875 1.765625zm-1.453125 0.15625l0 -0.15625q0 -0.640625 -0.125 -1.1875q-0.109375 -0.5625 -0.375 -0.984375q-0.25 -0.4375 -0.671875 -0.671875q-0.421875 -0.25 -1.046875 -0.25q-0.546875 0 -0.953125 0.1875q-0.390625 0.1875 -0.671875 0.5q-0.28125 0.3125 -0.46875 0.71875q-0.171875 0.40625 -0.25 0.828125l0 1.890625q0.125 0.546875 0.40625 1.046875q0.28125 0.5 0.765625 0.828125q0.484375 0.3125 1.1875 0.3125q0.59375 0 1.0 -0.234375q0.421875 -0.234375 0.6875 -0.65625q0.265625 -0.421875 0.390625 -0.96875q0.125 -0.5625 0.125 -1.203125zm6.78125 4.296875q-0.875 0 -1.59375 -0.296875q-0.71875 -0.3125 -1.234375 -0.859375q-0.5 -0.546875 -0.78125 -1.296875q-0.265625 -0.75 -0.265625 -1.640625l0 -0.328125q0 -1.03125 0.296875 -1.828125q0.3125 -0.8125 0.828125 -1.375q0.53125 -0.5625 1.1875 -0.84375q0.671875 -0.296875 1.375 -0.296875q0.90625 0 1.5625 0.3125q0.671875 0.3125 1.09375 0.875q0.421875 0.546875 0.625 1.3125q0.203125 0.75 0.203125 1.640625l0 0.640625l-6.3125 0l0 -1.171875l4.859375 0l0 -0.109375q-0.03125 -0.5625 -0.234375 -1.09375q-0.1875 -0.53125 -0.625 -0.875q-0.421875 -0.34375 -1.171875 -0.34375q-0.484375 0 -0.90625 0.203125q-0.40625 0.203125 -0.703125 0.609375q-0.296875 0.40625 -0.46875 1.0q-0.15625 0.578125 -0.15625 1.34375l0 0.328125q0 0.609375 0.15625 1.140625q0.171875 0.515625 0.5 0.921875q0.328125 0.390625 0.78125 0.625q0.46875 0.21875 1.0625 0.21875q0.765625 0 1.296875 -0.3125q0.53125 -0.3125 0.9375 -0.828125l0.875 0.6875q-0.28125 0.421875 -0.703125 0.796875q-0.421875 0.375 -1.03125 0.609375q-0.609375 0.234375 -1.453125 0.234375zm6.421875 -7.28125l0 7.125l-1.4375 0l0 -8.453125l1.40625 0l0.03125 1.328125zm2.640625 -1.375l0 1.34375q-0.1875 -0.046875 -0.34375 -0.046875q-0.15625 -0.015625 -0.359375 -0.015625q-0.5 0 -0.890625 0.15625q-0.375 0.15625 -0.640625 0.4375q-0.265625 0.28125 -0.421875 0.671875q-0.15625 0.375 -0.203125 0.84375l-0.40625 0.234375q0 -0.765625 0.15625 -1.4375q0.15625 -0.671875 0.46875 -1.1875q0.328125 -0.53125 0.8125 -0.8125q0.5 -0.296875 1.1875 -0.296875q0.15625 0 0.359375 0.03125q0.203125 0.03125 0.28125 0.078125zm6.75 1.671875l0 10.078125l-1.453125 0l0 -11.703125l1.328125 0l0.125 1.625zm5.703125 2.53125l0 0.15625q0 0.921875 -0.21875 1.71875q-0.21875 0.78125 -0.640625 1.359375q-0.421875 0.578125 -1.03125 0.90625q-0.609375 0.3125 -1.390625 0.3125q-0.8125 0 -1.4375 -0.265625q-0.609375 -0.265625 -1.046875 -0.765625q-0.421875 -0.515625 -0.671875 -1.21875q-0.25 -0.71875 -0.34375 -1.609375l0 -0.875q0.09375 -0.9375 0.34375 -1.671875q0.265625 -0.75 0.6875 -1.28125q0.421875 -0.53125 1.03125 -0.796875q0.609375 -0.28125 1.40625 -0.28125q0.796875 0 1.40625 0.3125q0.625 0.296875 1.046875 0.875q0.421875 0.5625 0.640625 1.359375q0.21875 0.796875 0.21875 1.765625zm-1.453125 0.15625l0 -0.15625q0 -0.640625 -0.140625 -1.1875q-0.125 -0.5625 -0.40625 -0.984375q-0.28125 -0.4375 -0.71875 -0.671875q-0.421875 -0.25 -1.015625 -0.25q-0.546875 0 -0.953125 0.1875q-0.390625 0.1875 -0.671875 0.5q-0.28125 0.3125 -0.46875 0.71875q-0.171875 0.40625 -0.25 0.828125l0 2.03125q0.15625 0.546875 0.4375 1.03125q0.28125 0.46875 0.75 0.765625q0.46875 0.296875 1.171875 0.296875q0.59375 0 1.015625 -0.25q0.421875 -0.25 0.703125 -0.671875q0.28125 -0.4375 0.40625 -0.984375q0.140625 -0.5625 0.140625 -1.203125zm8.28125 2.6875l0 -4.34375q0 -0.5 -0.203125 -0.875q-0.203125 -0.375 -0.609375 -0.578125q-0.390625 -0.203125 -0.96875 -0.203125q-0.546875 0 -0.96875 0.1875q-0.40625 0.1875 -0.640625 0.5q-0.21875 0.296875 -0.21875 0.65625l-1.453125 0q0 -0.453125 0.234375 -0.890625q0.234375 -0.453125 0.671875 -0.8125q0.453125 -0.375 1.0625 -0.578125q0.625 -0.21875 1.390625 -0.21875q0.921875 0 1.625 0.3125q0.71875 0.3125 1.109375 0.9375q0.40625 0.625 0.40625 1.578125l0 3.9375q0 0.421875 0.078125 0.90625q0.078125 0.46875 0.21875 0.8125l0 0.125l-1.5 0q-0.109375 -0.25 -0.171875 -0.671875q-0.0625 -0.421875 -0.0625 -0.78125zm0.25 -3.671875l0.015625 1.015625l-1.46875 0q-0.609375 0 -1.09375 0.09375q-0.484375 0.09375 -0.8125 0.296875q-0.328125 0.1875 -0.5 0.484375q-0.171875 0.296875 -0.171875 0.6875q0 0.390625 0.171875 0.71875q0.1875 0.328125 0.546875 0.53125q0.359375 0.1875 0.890625 0.1875q0.671875 0 1.171875 -0.28125q0.515625 -0.28125 0.8125 -0.6875q0.296875 -0.40625 0.328125 -0.796875l0.609375 0.703125q-0.046875 0.328125 -0.296875 0.734375q-0.234375 0.390625 -0.640625 0.75q-0.40625 0.359375 -0.953125 0.609375q-0.546875 0.234375 -1.234375 0.234375q-0.859375 0 -1.515625 -0.328125q-0.640625 -0.34375 -1.0 -0.90625q-0.34375 -0.578125 -0.34375 -1.28125q0 -0.671875 0.265625 -1.1875q0.265625 -0.53125 0.765625 -0.875q0.5 -0.34375 1.203125 -0.515625q0.703125 -0.1875 1.5625 -0.1875l1.6875 0zm4.90625 -1.53125l0 6.65625l-1.4375 0l0 -8.453125l1.359375 0l0.078125 1.796875zm-0.34375 2.109375l-0.59375 -0.03125q0 -0.859375 0.25 -1.59375q0.25 -0.75 0.703125 -1.296875q0.453125 -0.546875 1.078125 -0.84375q0.640625 -0.296875 1.40625 -0.296875q0.625 0 1.125 0.171875q0.5 0.15625 0.84375 0.53125q0.359375 0.359375 0.546875 0.953125q0.1875 0.578125 0.1875 1.40625l0 5.546875l-1.453125 0l0 -5.5625q0 -0.65625 -0.203125 -1.0625q-0.1875 -0.40625 -0.5625 -0.578125q-0.375 -0.1875 -0.921875 -0.1875q-0.53125 0 -0.984375 0.234375q-0.4375 0.21875 -0.75 0.625q-0.3125 0.390625 -0.5 0.90625q-0.171875 0.5 -0.171875 1.078125zm11.2421875 4.703125q-0.875 0 -1.59375 -0.296875q-0.71875 -0.3125 -1.234375 -0.859375q-0.5 -0.546875 -0.78125 -1.296875q-0.265625 -0.75 -0.265625 -1.640625l0 -0.328125q0 -1.03125 0.296875 -1.828125q0.3125 -0.8125 0.828125 -1.375q0.53125 -0.5625 1.1875 -0.84375q0.671875 -0.296875 1.375 -0.296875q0.90625 0 1.5625 0.3125q0.671875 0.3125 1.09375 0.875q0.421875 0.546875 0.625 1.3125q0.203125 0.75 0.203125 1.640625l0 0.640625l-6.3125 0l0 -1.171875l4.859375 0l0 -0.109375q-0.03125 -0.5625 -0.234375 -1.09375q-0.1875 -0.53125 -0.625 -0.875q-0.421875 -0.34375 -1.171875 -0.34375q-0.484375 0 -0.90625 0.203125q-0.40625 0.203125 -0.703125 0.609375q-0.296875 0.40625 -0.46875 1.0q-0.15625 0.578125 -0.15625 1.34375l0 0.328125q0 0.609375 0.15625 1.140625q0.171875 0.515625 0.5 0.921875q0.328125 0.390625 0.78125 0.625q0.46875 0.21875 1.0625 0.21875q0.765625 0 1.296875 -0.3125q0.53125 -0.3125 0.9375 -0.828125l0.875 0.6875q-0.28125 0.421875 -0.703125 0.796875q-0.421875 0.375 -1.03125 0.609375q-0.609375 0.234375 -1.453125 0.234375zm6.546875 -12.15625l0 12.0l-1.453125 0l0 -12.0l1.453125 0z" fill-rule="nonzero"/><path fill="#000000" fill-opacity="0.0" d="m559.16797 61.036747l64.22046 0l0 30.61417l-64.22046 0z" fill-rule="evenodd"/><path fill="#000000" d="m570.71484 76.23571l0 10.078125l-1.453125 0l0 -11.703125l1.328125 0l0.125 1.625zm5.703125 2.53125l0 0.15625q0 0.921875 -0.21875 1.71875q-0.21875 0.78125 -0.640625 1.359375q-0.421875 0.578125 -1.03125 0.90625q-0.609375 0.3125 -1.390625 0.3125q-0.8125 0 -1.4375 -0.265625q-0.609375 -0.265625 -1.046875 -0.765625q-0.421875 -0.515625 -0.671875 -1.21875q-0.25 -0.71875 -0.34375 -1.609375l0 -0.875q0.09375 -0.9375 0.34375 -1.671875q0.265625 -0.75 0.6875 -1.28125q0.421875 -0.53125 1.03125 -0.796875q0.609375 -0.28125 1.40625 -0.28125q0.796875 0 1.40625 0.3125q0.625 0.296875 1.046875 0.875q0.421875 0.5625 0.640625 1.359375q0.21875 0.796875 0.21875 1.765625zm-1.453125 0.15625l0 -0.15625q0 -0.640625 -0.140625 -1.1875q-0.125 -0.5625 -0.40625 -0.984375q-0.28125 -0.4375 -0.71875 -0.671875q-0.421875 -0.25 -1.015625 -0.25q-0.546875 0 -0.953125 0.1875q-0.390625 0.1875 -0.671875 0.5q-0.28125 0.3125 -0.46875 0.71875q-0.171875 0.40625 -0.25 0.828125l0 2.03125q0.15625 0.546875 0.4375 1.03125q0.28125 0.46875 0.75 0.765625q0.46875 0.296875 1.171875 0.296875q0.59375 0 1.015625 -0.25q0.421875 -0.25 0.703125 -0.671875q0.28125 -0.4375 0.40625 -0.984375q0.140625 -0.5625 0.140625 -1.203125zm4.859375 -7.859375l0 12.0l-1.453125 0l0 -12.0l1.453125 0zm7.3125 10.546875l0 -4.34375q0 -0.5 -0.203125 -0.875q-0.203125 -0.375 -0.609375 -0.578125q-0.390625 -0.203125 -0.96875 -0.203125q-0.546875 0 -0.96875 0.1875q-0.40625 0.1875 -0.640625 0.5q-0.21875 0.296875 -0.21875 0.65625l-1.453125 0q0 -0.453125 0.234375 -0.890625q0.234375 -0.453125 0.671875 -0.8125q0.453125 -0.375 1.0625 -0.578125q0.625 -0.21875 1.390625 -0.21875q0.921875 0 1.625 0.3125q0.71875 0.3125 1.109375 0.9375q0.40625 0.625 0.40625 1.578125l0 3.9375q0 0.421875 0.078125 0.90625q0.078125 0.46875 0.21875 0.8125l0 0.125l-1.5 0q-0.109375 -0.25 -0.171875 -0.671875q-0.0625 -0.421875 -0.0625 -0.78125zm0.25 -3.671875l0.015625 1.015625l-1.46875 0q-0.609375 0 -1.09375 0.09375q-0.484375 0.09375 -0.8125 0.296875q-0.328125 0.1875 -0.5 0.484375q-0.171875 0.296875 -0.171875 0.6875q0 0.390625 0.171875 0.71875q0.1875 0.328125 0.546875 0.53125q0.359375 0.1875 0.890625 0.1875q0.671875 0 1.171875 -0.28125q0.515625 -0.28125 0.8125 -0.6875q0.296875 -0.40625 0.328125 -0.796875l0.609375 0.703125q-0.046875 0.328125 -0.296875 0.734375q-0.234375 0.390625 -0.640625 0.75q-0.40625 0.359375 -0.953125 0.609375q-0.546875 0.234375 -1.234375 0.234375q-0.859375 0 -1.515625 -0.328125q-0.640625 -0.34375 -1.0 -0.90625q-0.34375 -0.578125 -0.34375 -1.28125q0 -0.671875 0.265625 -1.1875q0.265625 -0.53125 0.765625 -0.875q0.5 -0.34375 1.203125 -0.515625q0.703125 -0.1875 1.5625 -0.1875l1.6875 0zm6.84375 4.09375q0.515625 0 0.953125 -0.203125q0.4375 -0.21875 0.71875 -0.59375q0.28125 -0.375 0.328125 -0.84375l1.375 0q-0.046875 0.75 -0.515625 1.390625q-0.453125 0.640625 -1.203125 1.046875q-0.75 0.390625 -1.65625 0.390625q-0.953125 0 -1.65625 -0.328125q-0.703125 -0.34375 -1.171875 -0.921875q-0.46875 -0.59375 -0.703125 -1.359375q-0.21875 -0.765625 -0.21875 -1.609375l0 -0.328125q0 -0.859375 0.21875 -1.609375q0.234375 -0.765625 0.703125 -1.34375q0.46875 -0.59375 1.171875 -0.921875q0.703125 -0.34375 1.65625 -0.34375q1.0 0 1.734375 0.40625q0.75 0.390625 1.171875 1.09375q0.421875 0.6875 0.46875 1.5625l-1.375 0q-0.046875 -0.53125 -0.296875 -0.953125q-0.25 -0.421875 -0.6875 -0.671875q-0.4375 -0.25 -1.015625 -0.25q-0.65625 0 -1.109375 0.265625q-0.453125 0.25 -0.71875 0.703125q-0.25 0.4375 -0.375 0.96875q-0.109375 0.53125 -0.109375 1.09375l0 0.328125q0 0.546875 0.109375 1.09375q0.109375 0.53125 0.375 0.96875q0.265625 0.4375 0.703125 0.703125q0.453125 0.265625 1.125 0.265625zm4.609375 -3.109375l0 -0.171875q0 -0.921875 0.265625 -1.703125q0.265625 -0.78125 0.765625 -1.359375q0.5 -0.59375 1.203125 -0.90625q0.71875 -0.328125 1.609375 -0.328125q0.890625 0 1.59375 0.328125q0.71875 0.3125 1.21875 0.90625q0.515625 0.578125 0.78125 1.359375q0.265625 0.78125 0.265625 1.703125l0 0.171875q0 0.921875 -0.265625 1.703125q-0.265625 0.78125 -0.78125 1.359375q-0.5 0.578125 -1.203125 0.90625q-0.703125 0.328125 -1.59375 0.328125q-0.890625 0 -1.609375 -0.328125q-0.703125 -0.328125 -1.21875 -0.90625q-0.5 -0.578125 -0.765625 -1.359375q-0.265625 -0.78125 -0.265625 -1.703125zm1.453125 -0.171875l0 0.171875q0 0.640625 0.140625 1.203125q0.15625 0.546875 0.453125 0.984375q0.296875 0.421875 0.75 0.671875q0.453125 0.25 1.0625 0.25q0.59375 0 1.03125 -0.25q0.453125 -0.25 0.75 -0.671875q0.296875 -0.4375 0.453125 -0.984375q0.15625 -0.5625 0.15625 -1.203125l0 -0.171875q0 -0.625 -0.15625 -1.1875q-0.15625 -0.5625 -0.453125 -0.984375q-0.296875 -0.4375 -0.75 -0.6875q-0.453125 -0.25 -1.046875 -0.25q-0.59375 0 -1.046875 0.25q-0.453125 0.25 -0.75 0.6875q-0.296875 0.421875 -0.453125 0.984375q-0.140625 0.5625 -0.140625 1.1875z" fill-rule="nonzero"/><path fill="#000000" fill-opacity="0.0" d="m331.82416 0l306.77167 0l0 30.614174l-306.77167 0z" fill-rule="evenodd"/><path fill="#000000" d="m348.43353 18.245836l2.34375 0q-0.078125 1.15625 -0.640625 2.046875q-0.546875 0.890625 -1.546875 1.390625q-1.0 0.5 -2.390625 0.5q-1.09375 0 -1.96875 -0.375q-0.859375 -0.390625 -1.484375 -1.09375q-0.609375 -0.71875 -0.9375 -1.71875q-0.3125 -1.015625 -0.3125 -2.265625l0 -0.78125q0 -1.25 0.328125 -2.265625q0.34375 -1.015625 0.953125 -1.71875q0.625 -0.71875 1.484375 -1.09375q0.875 -0.390625 1.953125 -0.390625q1.421875 0 2.390625 0.515625q0.984375 0.515625 1.53125 1.421875q0.546875 0.90625 0.65625 2.0625l-2.34375 0q-0.046875 -0.6875 -0.28125 -1.15625q-0.234375 -0.484375 -0.703125 -0.734375q-0.46875 -0.25 -1.25 -0.25q-0.59375 0 -1.03125 0.21875q-0.4375 0.21875 -0.734375 0.671875q-0.296875 0.4375 -0.4375 1.125q-0.140625 0.671875 -0.140625 1.578125l0 0.796875q0 0.890625 0.125 1.5625q0.140625 0.65625 0.40625 1.125q0.28125 0.453125 0.71875 0.6875q0.453125 0.21875 1.078125 0.21875q0.734375 0 1.203125 -0.234375q0.484375 -0.234375 0.734375 -0.6875q0.25 -0.46875 0.296875 -1.15625zm3.375 -0.359375l0 -0.171875q0 -0.921875 0.265625 -1.703125q0.265625 -0.796875 0.765625 -1.375q0.515625 -0.578125 1.25 -0.890625q0.75 -0.328125 1.71875 -0.328125q0.953125 0 1.703125 0.328125q0.75 0.3125 1.265625 0.890625q0.515625 0.578125 0.78125 1.375q0.265625 0.78125 0.265625 1.703125l0 0.171875q0 0.921875 -0.265625 1.703125q-0.265625 0.78125 -0.78125 1.375q-0.515625 0.578125 -1.265625 0.90625q-0.734375 0.3125 -1.6875 0.3125q-0.96875 0 -1.71875 -0.3125q-0.734375 -0.328125 -1.25 -0.90625q-0.515625 -0.59375 -0.78125 -1.375q-0.265625 -0.78125 -0.265625 -1.703125zm2.25 -0.171875l0 0.171875q0 0.53125 0.09375 1.0q0.09375 0.453125 0.296875 0.796875q0.21875 0.34375 0.546875 0.546875q0.34375 0.1875 0.828125 0.1875q0.46875 0 0.796875 -0.1875q0.34375 -0.203125 0.546875 -0.546875q0.203125 -0.34375 0.296875 -0.796875q0.09375 -0.46875 0.09375 -1.0l0 -0.171875q0 -0.515625 -0.09375 -0.96875q-0.09375 -0.453125 -0.3125 -0.8125q-0.203125 -0.359375 -0.546875 -0.5625q-0.328125 -0.203125 -0.796875 -0.203125q-0.484375 0 -0.8125 0.203125q-0.328125 0.203125 -0.546875 0.5625q-0.203125 0.359375 -0.296875 0.8125q-0.09375 0.453125 -0.09375 0.96875zm9.390625 -2.390625l0 6.703125l-2.25 0l0 -8.453125l2.109375 0l0.140625 1.75zm-0.3125 2.171875l-0.625 0q0 -0.875 0.21875 -1.625q0.21875 -0.75 0.625 -1.296875q0.421875 -0.546875 1.03125 -0.84375q0.625 -0.3125 1.4375 -0.3125q0.5625 0 1.03125 0.171875q0.46875 0.15625 0.8125 0.515625q0.34375 0.359375 0.53125 0.921875q0.1875 0.5625 0.1875 1.359375l0 5.640625l-2.25 0l0 -5.390625q0 -0.578125 -0.15625 -0.890625q-0.15625 -0.3125 -0.453125 -0.4375q-0.28125 -0.125 -0.671875 -0.125q-0.4375 0 -0.765625 0.1875q-0.328125 0.171875 -0.546875 0.484375q-0.203125 0.3125 -0.3125 0.734375q-0.09375 0.421875 -0.09375 0.90625zm5.03125 -0.25l-0.796875 0.09375q0 -0.828125 0.203125 -1.53125q0.203125 -0.71875 0.609375 -1.25q0.421875 -0.546875 1.03125 -0.84375q0.609375 -0.296875 1.40625 -0.296875q0.609375 0 1.109375 0.171875q0.5 0.171875 0.84375 0.5625q0.359375 0.375 0.546875 0.984375q0.203125 0.609375 0.203125 1.484375l0 5.40625l-2.265625 0l0 -5.40625q0 -0.578125 -0.15625 -0.890625q-0.140625 -0.3125 -0.4375 -0.421875q-0.28125 -0.125 -0.671875 -0.125q-0.40625 0 -0.71875 0.15625q-0.296875 0.15625 -0.5 0.4375q-0.203125 0.28125 -0.3125 0.65625q-0.09375 0.375 -0.09375 0.8125zm9.140625 -2.046875l0 10.078125l-2.25 0l0 -11.703125l2.09375 0l0.15625 1.625zm5.359375 2.5l0 0.171875q0 0.921875 -0.21875 1.71875q-0.21875 0.78125 -0.640625 1.359375q-0.40625 0.578125 -1.015625 0.90625q-0.609375 0.328125 -1.40625 0.328125q-0.78125 0 -1.359375 -0.3125q-0.5625 -0.3125 -0.953125 -0.875q-0.375 -0.578125 -0.609375 -1.328125q-0.234375 -0.75 -0.359375 -1.609375l0 -0.421875q0.125 -0.921875 0.359375 -1.6875q0.234375 -0.78125 0.609375 -1.34375q0.390625 -0.5625 0.953125 -0.875q0.578125 -0.3125 1.34375 -0.3125q0.796875 0 1.40625 0.3125q0.625 0.296875 1.03125 0.875q0.421875 0.5625 0.640625 1.359375q0.21875 0.78125 0.21875 1.734375zm-2.25 0.171875l0 -0.171875q0 -0.53125 -0.09375 -0.984375q-0.09375 -0.46875 -0.296875 -0.8125q-0.1875 -0.34375 -0.5 -0.53125q-0.296875 -0.1875 -0.734375 -0.1875q-0.46875 0 -0.796875 0.15625q-0.3125 0.140625 -0.515625 0.421875q-0.203125 0.28125 -0.3125 0.671875q-0.09375 0.390625 -0.125 0.875l0 1.09375q0.046875 0.578125 0.21875 1.03125q0.1875 0.453125 0.5625 0.71875q0.375 0.265625 0.984375 0.265625q0.4375 0 0.734375 -0.1875q0.3125 -0.203125 0.5 -0.546875q0.203125 -0.359375 0.28125 -0.8125q0.09375 -0.46875 0.09375 -1.0zm3.28125 0.015625l0 -0.171875q0 -0.921875 0.265625 -1.703125q0.265625 -0.796875 0.765625 -1.375q0.515625 -0.578125 1.25 -0.890625q0.75 -0.328125 1.71875 -0.328125q0.953125 0 1.703125 0.328125q0.75 0.3125 1.265625 0.890625q0.515625 0.578125 0.78125 1.375q0.265625 0.78125 0.265625 1.703125l0 0.171875q0 0.921875 -0.265625 1.703125q-0.265625 0.78125 -0.78125 1.375q-0.515625 0.578125 -1.265625 0.90625q-0.734375 0.3125 -1.6875 0.3125q-0.96875 0 -1.71875 -0.3125q-0.734375 -0.328125 -1.25 -0.90625q-0.515625 -0.59375 -0.78125 -1.375q-0.265625 -0.78125 -0.265625 -1.703125zm2.25 -0.171875l0 0.171875q0 0.53125 0.09375 1.0q0.09375 0.453125 0.296875 0.796875q0.21875 0.34375 0.546875 0.546875q0.34375 0.1875 0.828125 0.1875q0.46875 0 0.796875 -0.1875q0.34375 -0.203125 0.546875 -0.546875q0.203125 -0.34375 0.296875 -0.796875q0.09375 -0.46875 0.09375 -1.0l0 -0.171875q0 -0.515625 -0.09375 -0.96875q-0.09375 -0.453125 -0.3125 -0.8125q-0.203125 -0.359375 -0.546875 -0.5625q-0.328125 -0.203125 -0.796875 -0.203125q-0.484375 0 -0.8125 0.203125q-0.328125 0.203125 -0.546875 0.5625q-0.203125 0.359375 -0.296875 0.8125q-0.09375 0.453125 -0.09375 0.96875zm11.71875 1.96875q0 -0.234375 -0.140625 -0.421875q-0.140625 -0.203125 -0.53125 -0.375q-0.375 -0.171875 -1.078125 -0.3125q-0.640625 -0.140625 -1.203125 -0.34375q-0.546875 -0.21875 -0.953125 -0.515625q-0.390625 -0.3125 -0.625 -0.734375q-0.21875 -0.421875 -0.21875 -0.953125q0 -0.53125 0.21875 -1.0q0.234375 -0.46875 0.671875 -0.828125q0.4375 -0.375 1.0625 -0.578125q0.625 -0.203125 1.421875 -0.203125q1.09375 0 1.890625 0.359375q0.796875 0.34375 1.21875 0.953125q0.421875 0.609375 0.421875 1.390625l-2.25 0q0 -0.328125 -0.140625 -0.578125q-0.125 -0.265625 -0.421875 -0.421875q-0.28125 -0.15625 -0.734375 -0.15625q-0.375 0 -0.65625 0.140625q-0.265625 0.125 -0.40625 0.34375q-0.140625 0.203125 -0.140625 0.46875q0 0.1875 0.078125 0.34375q0.078125 0.15625 0.265625 0.28125q0.1875 0.125 0.484375 0.234375q0.3125 0.09375 0.75 0.1875q0.921875 0.1875 1.640625 0.484375q0.71875 0.296875 1.140625 0.8125q0.421875 0.515625 0.421875 1.34375q0 0.5625 -0.25 1.03125q-0.25 0.46875 -0.71875 0.8125q-0.46875 0.34375 -1.125 0.546875q-0.65625 0.1875 -1.46875 0.1875q-1.171875 0 -2.0 -0.421875q-0.8125 -0.421875 -1.234375 -1.078125q-0.40625 -0.65625 -0.40625 -1.34375l2.125 0q0.015625 0.46875 0.234375 0.75q0.234375 0.28125 0.578125 0.40625q0.34375 0.125 0.75 0.125q0.4375 0 0.71875 -0.125q0.296875 -0.125 0.453125 -0.328125q0.15625 -0.203125 0.15625 -0.484375zm6.015625 -6.109375l0 8.453125l-2.25 0l0 -8.453125l2.25 0zm-2.390625 -2.203125q0 -0.5 0.34375 -0.8125q0.34375 -0.328125 0.921875 -0.328125q0.5625 0 0.90625 0.328125q0.359375 0.3125 0.359375 0.8125q0 0.484375 -0.359375 0.8125q-0.34375 0.3125 -0.90625 0.3125q-0.578125 0 -0.921875 -0.3125q-0.34375 -0.328125 -0.34375 -0.8125zm8.390625 2.203125l0 1.59375l-4.921875 0l0 -1.59375l4.921875 0zm-3.703125 -2.09375l2.25 0l0 8.0q0 0.359375 0.09375 0.5625q0.109375 0.1875 0.296875 0.265625q0.203125 0.078125 0.5 0.078125q0.203125 0 0.375 -0.015625q0.171875 -0.03125 0.28125 -0.046875l0.015625 1.65625q-0.296875 0.09375 -0.640625 0.140625q-0.328125 0.0625 -0.734375 0.0625q-0.734375 0 -1.296875 -0.25q-0.546875 -0.25 -0.84375 -0.796875q-0.296875 -0.546875 -0.296875 -1.4375l0 -8.21875zm7.3515625 2.09375l0 8.453125l-2.25 0l0 -8.453125l2.25 0zm-2.390625 -2.203125q0 -0.5 0.34375 -0.8125q0.34375 -0.328125 0.921875 -0.328125q0.5625 0 0.90625 0.328125q0.359375 0.3125 0.359375 0.8125q0 0.484375 -0.359375 0.8125q-0.34375 0.3125 -0.90625 0.3125q-0.578125 0 -0.921875 -0.3125q-0.34375 -0.328125 -0.34375 -0.8125zm3.890625 6.515625l0 -0.171875q0 -0.921875 0.265625 -1.703125q0.265625 -0.796875 0.765625 -1.375q0.515625 -0.578125 1.25 -0.890625q0.75 -0.328125 1.71875 -0.328125q0.953125 0 1.703125 0.328125q0.75 0.3125 1.265625 0.890625q0.515625 0.578125 0.78125 1.375q0.265625 0.78125 0.265625 1.703125l0 0.171875q0 0.921875 -0.265625 1.703125q-0.265625 0.78125 -0.78125 1.375q-0.515625 0.578125 -1.265625 0.90625q-0.734375 0.3125 -1.6875 0.3125q-0.96875 0 -1.71875 -0.3125q-0.734375 -0.328125 -1.25 -0.90625q-0.515625 -0.59375 -0.78125 -1.375q-0.265625 -0.78125 -0.265625 -1.703125zm2.25 -0.171875l0 0.171875q0 0.53125 0.09375 1.0q0.09375 0.453125 0.296875 0.796875q0.21875 0.34375 0.546875 0.546875q0.34375 0.1875 0.828125 0.1875q0.46875 0 0.796875 -0.1875q0.34375 -0.203125 0.546875 -0.546875q0.203125 -0.34375 0.296875 -0.796875q0.09375 -0.46875 0.09375 -1.0l0 -0.171875q0 -0.515625 -0.09375 -0.96875q-0.09375 -0.453125 -0.3125 -0.8125q-0.203125 -0.359375 -0.546875 -0.5625q-0.328125 -0.203125 -0.796875 -0.203125q-0.484375 0 -0.8125 0.203125q-0.328125 0.203125 -0.546875 0.5625q-0.203125 0.359375 -0.296875 0.8125q-0.09375 0.453125 -0.09375 0.96875zm9.34375 -2.34375l0 6.65625l-2.25 0l0 -8.453125l2.109375 0l0.140625 1.796875zm-0.328125 2.125l-0.609375 0q0 -0.9375 0.234375 -1.6875q0.25 -0.75 0.6875 -1.28125q0.4375 -0.546875 1.046875 -0.828125q0.609375 -0.28125 1.359375 -0.28125q0.59375 0 1.078125 0.171875q0.5 0.171875 0.84375 0.546875q0.359375 0.375 0.546875 1.0q0.203125 0.609375 0.203125 1.5l0 5.390625l-2.265625 0l0 -5.40625q0 -0.5625 -0.15625 -0.875q-0.15625 -0.3125 -0.46875 -0.4375q-0.296875 -0.125 -0.734375 -0.125q-0.453125 0 -0.78125 0.1875q-0.328125 0.171875 -0.546875 0.484375q-0.21875 0.3125 -0.328125 0.734375q-0.109375 0.421875 -0.109375 0.90625zm10.7109375 0.390625l0 -0.171875q0 -0.921875 0.265625 -1.703125q0.265625 -0.796875 0.765625 -1.375q0.515625 -0.578125 1.25 -0.890625q0.75 -0.328125 1.71875 -0.328125q0.953125 0 1.703125 0.328125q0.75 0.3125 1.265625 0.890625q0.515625 0.578125 0.78125 1.375q0.265625 0.78125 0.265625 1.703125l0 0.171875q0 0.921875 -0.265625 1.703125q-0.265625 0.78125 -0.78125 1.375q-0.515625 0.578125 -1.265625 0.90625q-0.734375 0.3125 -1.6875 0.3125q-0.96875 0 -1.71875 -0.3125q-0.734375 -0.328125 -1.25 -0.90625q-0.515625 -0.59375 -0.78125 -1.375q-0.265625 -0.78125 -0.265625 -1.703125zm2.25 -0.171875l0 0.171875q0 0.53125 0.09375 1.0q0.09375 0.453125 0.296875 0.796875q0.21875 0.34375 0.546875 0.546875q0.34375 0.1875 0.828125 0.1875q0.46875 0 0.796875 -0.1875q0.34375 -0.203125 0.546875 -0.546875q0.203125 -0.34375 0.296875 -0.796875q0.09375 -0.46875 0.09375 -1.0l0 -0.171875q0 -0.515625 -0.09375 -0.96875q-0.09375 -0.453125 -0.3125 -0.8125q-0.203125 -0.359375 -0.546875 -0.5625q-0.328125 -0.203125 -0.796875 -0.203125q-0.484375 0 -0.8125 0.203125q-0.328125 0.203125 -0.546875 0.5625q-0.203125 0.359375 -0.296875 0.8125q-0.09375 0.453125 -0.09375 0.96875zm10.015625 4.3125l-2.265625 0l0 -9.203125q0 -0.96875 0.375 -1.625q0.375 -0.65625 1.0625 -1.0q0.703125 -0.34375 1.65625 -0.34375q0.3125 0 0.59375 0.046875q0.296875 0.046875 0.5625 0.109375l-0.015625 1.6875q-0.15625 -0.03125 -0.328125 -0.046875q-0.15625 -0.015625 -0.375 -0.015625q-0.40625 0 -0.6875 0.140625q-0.28125 0.125 -0.4375 0.390625q-0.140625 0.265625 -0.140625 0.65625l0 9.203125zm1.6875 -8.453125l0 1.59375l-5.21875 0l0 -1.59375l5.21875 0zm7.515625 0l0 8.453125l-2.25 0l0 -8.453125l2.25 0zm-2.390625 -2.203125q0 -0.5 0.34375 -0.8125q0.34375 -0.328125 0.921875 -0.328125q0.5625 0 0.90625 0.328125q0.359375 0.3125 0.359375 0.8125q0 0.484375 -0.359375 0.8125q-0.34375 0.3125 -0.90625 0.3125q-0.578125 0 -0.921875 -0.3125q-0.34375 -0.328125 -0.34375 -0.8125zm6.453125 4.0l0 6.65625l-2.25 0l0 -8.453125l2.109375 0l0.140625 1.796875zm-0.328125 2.125l-0.609375 0q0 -0.9375 0.234375 -1.6875q0.25 -0.75 0.6875 -1.28125q0.4375 -0.546875 1.046875 -0.828125q0.609375 -0.28125 1.359375 -0.28125q0.59375 0 1.078125 0.171875q0.5 0.171875 0.84375 0.546875q0.359375 0.375 0.546875 1.0q0.203125 0.609375 0.203125 1.5l0 5.390625l-2.265625 0l0 -5.40625q0 -0.5625 -0.15625 -0.875q-0.15625 -0.3125 -0.46875 -0.4375q-0.296875 -0.125 -0.734375 -0.125q-0.453125 0 -0.78125 0.1875q-0.328125 0.171875 -0.546875 0.484375q-0.21875 0.3125 -0.328125 0.734375q-0.109375 0.421875 -0.109375 0.90625zm11.234375 -3.921875l0 1.59375l-4.921875 0l0 -1.59375l4.921875 0zm-3.703125 -2.09375l2.25 0l0 8.0q0 0.359375 0.09375 0.5625q0.109375 0.1875 0.296875 0.265625q0.203125 0.078125 0.5 0.078125q0.203125 0 0.375 -0.015625q0.171875 -0.03125 0.28125 -0.046875l0.015625 1.65625q-0.296875 0.09375 -0.640625 0.140625q-0.328125 0.0625 -0.734375 0.0625q-0.734375 0 -1.296875 -0.25q-0.546875 -0.25 -0.84375 -0.796875q-0.296875 -0.546875 -0.296875 -1.4375l0 -8.21875zm8.8671875 10.703125q-0.984375 0 -1.765625 -0.3125q-0.78125 -0.328125 -1.328125 -0.890625q-0.53125 -0.5625 -0.828125 -1.296875q-0.28125 -0.75 -0.28125 -1.59375l0 -0.3125q0 -0.96875 0.265625 -1.765625q0.28125 -0.796875 0.78125 -1.375q0.515625 -0.59375 1.25 -0.90625q0.734375 -0.3125 1.65625 -0.3125q0.90625 0 1.59375 0.296875q0.703125 0.296875 1.171875 0.84375q0.46875 0.546875 0.703125 1.3125q0.25 0.75 0.25 1.6875l0 0.9375l-6.71875 0l0 -1.5l4.515625 0l0 -0.171875q0 -0.46875 -0.171875 -0.84375q-0.171875 -0.375 -0.515625 -0.59375q-0.328125 -0.21875 -0.84375 -0.21875q-0.453125 0 -0.78125 0.203125q-0.3125 0.1875 -0.515625 0.546875q-0.1875 0.34375 -0.296875 0.828125q-0.09375 0.46875 -0.09375 1.03125l0 0.3125q0 0.5 0.140625 0.9375q0.15625 0.421875 0.421875 0.734375q0.265625 0.3125 0.65625 0.484375q0.390625 0.171875 0.875 0.171875q0.609375 0 1.140625 -0.234375q0.53125 -0.234375 0.90625 -0.71875l1.09375 1.1875q-0.265625 0.375 -0.71875 0.734375q-0.453125 0.34375 -1.09375 0.578125q-0.640625 0.21875 -1.46875 0.21875zm7.0 -6.765625l0 6.609375l-2.25 0l0 -8.453125l2.125 0l0.125 1.84375zm2.546875 -1.90625l-0.03125 2.09375q-0.171875 -0.03125 -0.40625 -0.046875q-0.21875 -0.015625 -0.40625 -0.015625q-0.484375 0 -0.828125 0.125q-0.34375 0.109375 -0.578125 0.34375q-0.234375 0.234375 -0.34375 0.578125q-0.109375 0.328125 -0.125 0.765625l-0.453125 -0.140625q0 -0.828125 0.15625 -1.515625q0.171875 -0.6875 0.484375 -1.203125q0.3125 -0.515625 0.765625 -0.796875q0.46875 -0.28125 1.0625 -0.28125q0.1875 0 0.375 0.03125q0.203125 0.015625 0.328125 0.0625zm3.4375 0.0625l0 8.453125l-2.25 0l0 -8.453125l2.25 0zm-2.390625 -2.203125q0 -0.5 0.34375 -0.8125q0.34375 -0.328125 0.921875 -0.328125q0.5625 0 0.90625 0.328125q0.359375 0.3125 0.359375 0.8125q0 0.484375 -0.359375 0.8125q-0.34375 0.3125 -0.90625 0.3125q-0.578125 0 -0.921875 -0.3125q-0.34375 -0.328125 -0.34375 -0.8125zm3.890625 6.515625l0 -0.171875q0 -0.921875 0.265625 -1.703125q0.265625 -0.796875 0.765625 -1.375q0.515625 -0.578125 1.25 -0.890625q0.75 -0.328125 1.71875 -0.328125q0.953125 0 1.703125 0.328125q0.75 0.3125 1.265625 0.890625q0.515625 0.578125 0.78125 1.375q0.265625 0.78125 0.265625 1.703125l0 0.171875q0 0.921875 -0.265625 1.703125q-0.265625 0.78125 -0.78125 1.375q-0.515625 0.578125 -1.265625 0.90625q-0.734375 0.3125 -1.6875 0.3125q-0.96875 0 -1.71875 -0.3125q-0.734375 -0.328125 -1.25 -0.90625q-0.515625 -0.59375 -0.78125 -1.375q-0.265625 -0.78125 -0.265625 -1.703125zm2.25 -0.171875l0 0.171875q0 0.53125 0.09375 1.0q0.09375 0.453125 0.296875 0.796875q0.21875 0.34375 0.546875 0.546875q0.34375 0.1875 0.828125 0.1875q0.46875 0 0.796875 -0.1875q0.34375 -0.203125 0.546875 -0.546875q0.203125 -0.34375 0.296875 -0.796875q0.09375 -0.46875 0.09375 -1.0l0 -0.171875q0 -0.515625 -0.09375 -0.96875q-0.09375 -0.453125 -0.3125 -0.8125q-0.203125 -0.359375 -0.546875 -0.5625q-0.328125 -0.203125 -0.796875 -0.203125q-0.484375 0 -0.8125 0.203125q-0.328125 0.203125 -0.546875 0.5625q-0.203125 0.359375 -0.296875 0.8125q-0.09375 0.453125 -0.09375 0.96875zm9.390625 -2.296875l0 6.609375l-2.25 0l0 -8.453125l2.125 0l0.125 1.84375zm2.546875 -1.90625l-0.03125 2.09375q-0.171875 -0.03125 -0.40625 -0.046875q-0.21875 -0.015625 -0.40625 -0.015625q-0.484375 0 -0.828125 0.125q-0.34375 0.109375 -0.578125 0.34375q-0.234375 0.234375 -0.34375 0.578125q-0.109375 0.328125 -0.125 0.765625l-0.453125 -0.140625q0 -0.828125 0.15625 -1.515625q0.171875 -0.6875 0.484375 -1.203125q0.3125 -0.515625 0.765625 -0.796875q0.46875 -0.28125 1.0625 -0.28125q0.1875 0 0.375 0.03125q0.203125 0.015625 0.328125 0.0625zm7.4609375 6.328125l1.75 -6.265625l1.4375 0l-0.46875 2.453125l-1.75 6.0l-1.203125 0l0.234375 -2.1875zm-0.890625 -6.265625l1.25 6.25l0.125 2.203125l-1.40625 0l-2.140625 -8.453125l2.171875 0zm5.6875 6.15625l1.21875 -6.15625l2.1875 0l-2.140625 8.453125l-1.40625 0l0.140625 -2.296875zm-1.421875 -6.15625l1.75 6.21875l0.25 2.234375l-1.203125 0l-1.765625 -5.984375l-0.4375 -2.46875l1.40625 0zm10.515625 6.546875l0 -3.765625q0 -0.40625 -0.140625 -0.703125q-0.125 -0.296875 -0.40625 -0.453125q-0.265625 -0.171875 -0.703125 -0.171875q-0.375 0 -0.65625 0.140625q-0.265625 0.125 -0.421875 0.359375q-0.140625 0.234375 -0.140625 0.5625l-2.25 0q0 -0.546875 0.25 -1.03125q0.25 -0.484375 0.71875 -0.84375q0.484375 -0.375 1.140625 -0.578125q0.65625 -0.21875 1.484375 -0.21875q0.984375 0 1.75 0.328125q0.765625 0.328125 1.203125 0.984375q0.4375 0.65625 0.4375 1.640625l0 3.609375q0 0.703125 0.078125 1.140625q0.09375 0.4375 0.265625 0.765625l0 0.140625l-2.28125 0q-0.15625 -0.34375 -0.25 -0.859375q-0.078125 -0.53125 -0.078125 -1.046875zm0.296875 -3.25l0.015625 1.28125l-1.25 0q-0.453125 0 -0.78125 0.109375q-0.328125 0.09375 -0.546875 0.28125q-0.203125 0.171875 -0.296875 0.421875q-0.09375 0.234375 -0.09375 0.53125q0 0.28125 0.125 0.515625q0.140625 0.234375 0.390625 0.359375q0.25 0.125 0.578125 0.125q0.515625 0 0.890625 -0.203125q0.375 -0.203125 0.578125 -0.5q0.203125 -0.296875 0.21875 -0.5625l0.59375 0.953125q-0.125 0.328125 -0.34375 0.671875q-0.21875 0.34375 -0.546875 0.640625q-0.328125 0.296875 -0.796875 0.5q-0.453125 0.1875 -1.078125 0.1875q-0.8125 0 -1.46875 -0.328125q-0.640625 -0.328125 -1.03125 -0.890625q-0.375 -0.578125 -0.375 -1.3125q0 -0.671875 0.25 -1.1875q0.25 -0.515625 0.734375 -0.859375q0.5 -0.359375 1.234375 -0.546875q0.734375 -0.1875 1.703125 -0.1875l1.296875 0zm6.078125 -6.84375l0 12.0l-2.25 0l0 -12.0l2.25 0zm4.234375 0l0 12.0l-2.25 0l0 -12.0l2.25 0zm6.4375 9.65625q0 -0.234375 -0.140625 -0.421875q-0.140625 -0.203125 -0.53125 -0.375q-0.375 -0.171875 -1.078125 -0.3125q-0.640625 -0.140625 -1.203125 -0.34375q-0.546875 -0.21875 -0.953125 -0.515625q-0.390625 -0.3125 -0.625 -0.734375q-0.21875 -0.421875 -0.21875 -0.953125q0 -0.53125 0.21875 -1.0q0.234375 -0.46875 0.671875 -0.828125q0.4375 -0.375 1.0625 -0.578125q0.625 -0.203125 1.421875 -0.203125q1.09375 0 1.890625 0.359375q0.796875 0.34375 1.21875 0.953125q0.421875 0.609375 0.421875 1.390625l-2.25 0q0 -0.328125 -0.140625 -0.578125q-0.125 -0.265625 -0.421875 -0.421875q-0.28125 -0.15625 -0.734375 -0.15625q-0.375 0 -0.65625 0.140625q-0.265625 0.125 -0.40625 0.34375q-0.140625 0.203125 -0.140625 0.46875q0 0.1875 0.078125 0.34375q0.078125 0.15625 0.265625 0.28125q0.1875 0.125 0.484375 0.234375q0.3125 0.09375 0.75 0.1875q0.921875 0.1875 1.640625 0.484375q0.71875 0.296875 1.140625 0.8125q0.421875 0.515625 0.421875 1.34375q0 0.5625 -0.25 1.03125q-0.25 0.46875 -0.71875 0.8125q-0.46875 0.34375 -1.125 0.546875q-0.65625 0.1875 -1.46875 0.1875q-1.171875 0 -2.0 -0.421875q-0.8125 -0.421875 -1.234375 -1.078125q-0.40625 -0.65625 -0.40625 -1.34375l2.125 0q0.015625 0.46875 0.234375 0.75q0.234375 0.28125 0.578125 0.40625q0.34375 0.125 0.75 0.125q0.4375 0 0.71875 -0.125q0.296875 -0.125 0.453125 -0.328125q0.15625 -0.203125 0.15625 -0.484375z" fill-rule="nonzero"/><path fill="#dd7e6b" d="m12.937008 61.035435l55.77953 0l0 223.08661l-55.77953 0z" fill-rule="evenodd"/><path stroke="#000000" stroke-width="1.0" stroke-linejoin="round" stroke-linecap="butt" d="m12.937008 61.035435l55.77953 0l0 223.08661l-55.77953 0z" fill-rule="evenodd"/><path fill="#b7b7b7" d="m68.71654 61.035435l10.992126 0l0 223.08661l-10.992126 0z" fill-rule="evenodd"/><path stroke="#000000" stroke-width="1.0" stroke-linejoin="round" stroke-linecap="butt" d="m68.71654 61.035435l10.992126 0l0 223.08661l-10.992126 0z" fill-rule="evenodd"/><path fill="#b7b7b7" d="m202.18373 61.035435l30.425186 0l0 30.61417l-30.425186 0z" fill-rule="evenodd"/><path stroke="#000000" stroke-width="1.0" stroke-linejoin="round" stroke-linecap="butt" d="m202.18373 61.035435l30.425186 0l0 30.61417l-30.425186 0z" fill-rule="evenodd"/><path fill="#dd7e6b" d="m202.18373 117.59974l30.425186 0l0 30.614174l-30.425186 0z" fill-rule="evenodd"/><path stroke="#000000" stroke-width="1.0" stroke-linejoin="round" stroke-linecap="butt" d="m202.18373 117.59974l30.425186 0l0 30.614174l-30.425186 0z" fill-rule="evenodd"/><path fill="#000000" fill-opacity="0.0" d="m247.86089 117.59974l80.28346 0l0 30.614174l-80.28346 0z" fill-rule="evenodd"/><path fill="#000000" d="m259.53278 131.1737l0 8.453125l-1.453125 0l0 -8.453125l1.453125 0zm-1.5625 -2.25q0 -0.34375 0.21875 -0.578125q0.21875 -0.25 0.640625 -0.25q0.40625 0 0.625 0.25q0.234375 0.234375 0.234375 0.578125q0 0.34375 -0.234375 0.578125q-0.21875 0.234375 -0.625 0.234375q-0.421875 0 -0.640625 -0.234375q-0.21875 -0.234375 -0.21875 -0.578125zm5.328125 4.046875l0 6.65625l-1.4375 0l0 -8.453125l1.359375 0l0.078125 1.796875zm-0.34375 2.109375l-0.59375 -0.03125q0 -0.859375 0.25 -1.59375q0.25 -0.75 0.703125 -1.296875q0.453125 -0.546875 1.078125 -0.84375q0.640625 -0.296875 1.40625 -0.296875q0.625 0 1.125 0.171875q0.5 0.15625 0.84375 0.53125q0.359375 0.359375 0.546875 0.953125q0.1875 0.578125 0.1875 1.40625l0 5.546875l-1.453125 0l0 -5.5625q0 -0.65625 -0.203125 -1.0625q-0.1875 -0.40625 -0.5625 -0.578125q-0.375 -0.1875 -0.921875 -0.1875q-0.53125 0 -0.984375 0.234375q-0.4375 0.21875 -0.75 0.625q-0.3125 0.390625 -0.5 0.90625q-0.171875 0.5 -0.171875 1.078125zm12.6640625 2.296875q0 -0.3125 -0.140625 -0.578125q-0.140625 -0.265625 -0.5625 -0.484375q-0.40625 -0.234375 -1.25 -0.390625q-0.703125 -0.15625 -1.265625 -0.359375q-0.5625 -0.203125 -0.96875 -0.484375q-0.390625 -0.296875 -0.609375 -0.6875q-0.203125 -0.390625 -0.203125 -0.90625q0 -0.5 0.21875 -0.9375q0.234375 -0.453125 0.640625 -0.796875q0.40625 -0.34375 0.984375 -0.53125q0.578125 -0.203125 1.296875 -0.203125q1.015625 0 1.734375 0.359375q0.71875 0.359375 1.09375 0.953125q0.390625 0.59375 0.390625 1.328125l-1.453125 0q0 -0.359375 -0.203125 -0.6875q-0.203125 -0.328125 -0.609375 -0.546875q-0.390625 -0.21875 -0.953125 -0.21875q-0.609375 0 -0.984375 0.1875q-0.359375 0.171875 -0.53125 0.453125q-0.171875 0.28125 -0.171875 0.59375q0 0.234375 0.078125 0.421875q0.09375 0.1875 0.296875 0.34375q0.21875 0.140625 0.59375 0.28125q0.390625 0.125 0.984375 0.265625q1.03125 0.234375 1.703125 0.5625q0.671875 0.328125 1.0 0.8125q0.328125 0.46875 0.328125 1.140625q0 0.5625 -0.234375 1.03125q-0.21875 0.453125 -0.65625 0.78125q-0.4375 0.328125 -1.03125 0.515625q-0.59375 0.1875 -1.34375 0.1875q-1.109375 0 -1.890625 -0.390625q-0.765625 -0.40625 -1.171875 -1.03125q-0.390625 -0.640625 -0.390625 -1.34375l1.453125 0q0.03125 0.59375 0.34375 0.9375q0.3125 0.34375 0.765625 0.5q0.453125 0.140625 0.890625 0.140625q0.59375 0 1.0 -0.15625q0.40625 -0.15625 0.609375 -0.421875q0.21875 -0.28125 0.21875 -0.640625zm8.5078125 0.296875l0 -6.5l1.453125 0l0 8.453125l-1.390625 0l-0.0625 -1.953125zm0.265625 -1.78125l0.609375 -0.015625q0 0.84375 -0.1875 1.5625q-0.171875 0.703125 -0.5625 1.234375q-0.390625 0.515625 -1.03125 0.8125q-0.625 0.296875 -1.53125 0.296875q-0.609375 0 -1.125 -0.171875q-0.515625 -0.1875 -0.890625 -0.5625q-0.359375 -0.375 -0.5625 -0.96875q-0.1875 -0.609375 -0.1875 -1.453125l0 -5.453125l1.4375 0l0 5.46875q0 0.5625 0.125 0.9375q0.140625 0.375 0.359375 0.59375q0.21875 0.203125 0.5 0.296875q0.28125 0.078125 0.578125 0.078125q0.921875 0 1.453125 -0.34375q0.546875 -0.359375 0.78125 -0.96875q0.234375 -0.609375 0.234375 -1.34375zm4.9453125 -8.265633l0 12.000008l-1.453125 0l0 -12.000008l1.453125 0zm7.3125 10.546883l0 -4.34375q0 -0.5 -0.203125 -0.875q-0.203125 -0.375 -0.609375 -0.578125q-0.390625 -0.203125 -0.96875 -0.203125q-0.546875 0 -0.96875 0.1875q-0.40625 0.1875 -0.640625 0.5q-0.21875 0.296875 -0.21875 0.65625l-1.453125 0q0 -0.453125 0.234375 -0.890625q0.234375 -0.453125 0.671875 -0.8125q0.453125 -0.375 1.0625 -0.578125q0.625 -0.21875 1.390625 -0.21875q0.921875 0 1.625 0.3125q0.71875 0.3125 1.109375 0.9375q0.40625 0.625 0.40625 1.578125l0 3.9375q0 0.421875 0.078125 0.90625q0.078125 0.46875 0.21875 0.8125l0 0.125l-1.5 0q-0.109375 -0.25 -0.171875 -0.671875q-0.0625 -0.421875 -0.0625 -0.78125zm0.25 -3.671875l0.015625 1.015625l-1.46875 0q-0.609375 0 -1.09375 0.09375q-0.484375 0.09375 -0.8125 0.296875q-0.328125 0.1875 -0.5 0.484375q-0.171875 0.296875 -0.171875 0.6875q0 0.390625 0.171875 0.71875q0.1875 0.328125 0.546875 0.53125q0.359375 0.1875 0.890625 0.1875q0.671875 0 1.171875 -0.28125q0.515625 -0.28125 0.8125 -0.6875q0.296875 -0.40625 0.328125 -0.796875l0.609375 0.703125q-0.046875 0.328125 -0.296875 0.734375q-0.234375 0.390625 -0.640625 0.75q-0.40625 0.359375 -0.953125 0.609375q-0.546875 0.234375 -1.234375 0.234375q-0.859375 0 -1.515625 -0.328125q-0.640625 -0.34375 -1.0 -0.90625q-0.34375 -0.578125 -0.34375 -1.28125q0 -0.671875 0.265625 -1.1875q0.265625 -0.53125 0.765625 -0.875q0.5 -0.34375 1.203125 -0.515625q0.703125 -0.1875 1.5625 -0.1875l1.6875 0zm4.90625 -1.53125l0 6.65625l-1.4375 0l0 -8.453125l1.359375 0l0.078125 1.796875zm-0.34375 2.109375l-0.59375 -0.03125q0 -0.859375 0.25 -1.59375q0.25 -0.75 0.703125 -1.296875q0.453125 -0.546875 1.078125 -0.84375q0.640625 -0.296875 1.40625 -0.296875q0.625 0 1.125 0.171875q0.5 0.15625 0.84375 0.53125q0.359375 0.359375 0.546875 0.953125q0.1875 0.578125 0.1875 1.40625l0 5.546875l-1.453125 0l0 -5.5625q0 -0.65625 -0.203125 -1.0625q-0.1875 -0.40625 -0.5625 -0.578125q-0.375 -0.1875 -0.921875 -0.1875q-0.53125 0 -0.984375 0.234375q-0.4375 0.21875 -0.75 0.625q-0.3125 0.390625 -0.5 0.90625q-0.171875 0.5 -0.171875 1.078125zm11.2734375 -3.90625l0 1.109375l-4.5625 0l0 -1.109375l4.5625 0zm-3.015625 -2.0625l1.4375 0l0 8.421875q0 0.421875 0.125 0.640625q0.140625 0.21875 0.34375 0.296875q0.21875 0.0625 0.46875 0.0625q0.171875 0 0.375 -0.03125q0.203125 -0.03125 0.296875 -0.0625l0.015625 1.1875q-0.171875 0.0625 -0.453125 0.109375q-0.28125 0.046875 -0.671875 0.046875q-0.53125 0 -0.984375 -0.203125q-0.4375 -0.21875 -0.703125 -0.71875q-0.25 -0.5 -0.25 -1.34375l0 -8.40625z" fill-rule="nonzero"/><path fill="#000000" fill-opacity="0.0" d="m247.86089 61.035435l64.220474 0l0 30.61417l-64.220474 0z" fill-rule="evenodd"/><path fill="#000000" d="m259.40778 76.2344l0 10.078125l-1.453125 0l0 -11.703125l1.328125 0l0.125 1.625zm5.703125 2.53125l0 0.15625q0 0.921875 -0.21875 1.71875q-0.21875 0.78125 -0.640625 1.359375q-0.421875 0.578125 -1.03125 0.90625q-0.609375 0.3125 -1.390625 0.3125q-0.8125 0 -1.4375 -0.265625q-0.609375 -0.265625 -1.046875 -0.765625q-0.421875 -0.515625 -0.671875 -1.21875q-0.25 -0.71875 -0.34375 -1.609375l0 -0.875q0.09375 -0.9375 0.34375 -1.671875q0.265625 -0.75 0.6875 -1.28125q0.421875 -0.53125 1.03125 -0.796875q0.609375 -0.28125 1.40625 -0.28125q0.796875 0 1.40625 0.3125q0.625 0.296875 1.046875 0.875q0.421875 0.5625 0.640625 1.359375q0.21875 0.796875 0.21875 1.765625zm-1.453125 0.15625l0 -0.15625q0 -0.640625 -0.140625 -1.1875q-0.125 -0.5625 -0.40625 -0.984375q-0.28125 -0.4375 -0.71875 -0.671875q-0.421875 -0.25 -1.015625 -0.25q-0.546875 0 -0.953125 0.1875q-0.390625 0.1875 -0.671875 0.5q-0.28125 0.3125 -0.46875 0.71875q-0.171875 0.40625 -0.25 0.828125l0 2.03125q0.15625 0.546875 0.4375 1.03125q0.28125 0.46875 0.75 0.765625q0.46875 0.296875 1.171875 0.296875q0.59375 0 1.015625 -0.25q0.421875 -0.25 0.703125 -0.671875q0.28125 -0.4375 0.40625 -0.984375q0.140625 -0.5625 0.140625 -1.203125zm4.859375 -7.859375l0 12.0l-1.453125 0l0 -12.0l1.453125 0zm7.3125 10.546875l0 -4.34375q0 -0.5 -0.203125 -0.875q-0.203125 -0.375 -0.609375 -0.578125q-0.390625 -0.203125 -0.96875 -0.203125q-0.546875 0 -0.96875 0.1875q-0.40625 0.1875 -0.640625 0.5q-0.21875 0.296875 -0.21875 0.65625l-1.453125 0q0 -0.453125 0.234375 -0.890625q0.234375 -0.453125 0.671875 -0.8125q0.453125 -0.375 1.0625 -0.578125q0.625 -0.21875 1.390625 -0.21875q0.921875 0 1.625 0.3125q0.71875 0.3125 1.109375 0.9375q0.40625 0.625 0.40625 1.578125l0 3.9375q0 0.421875 0.078125 0.90625q0.078125 0.46875 0.21875 0.8125l0 0.125l-1.5 0q-0.109375 -0.25 -0.171875 -0.671875q-0.0625 -0.421875 -0.0625 -0.78125zm0.25 -3.671875l0.015625 1.015625l-1.46875 0q-0.609375 0 -1.09375 0.09375q-0.484375 0.09375 -0.8125 0.296875q-0.328125 0.1875 -0.5 0.484375q-0.171875 0.296875 -0.171875 0.6875q0 0.390625 0.171875 0.71875q0.1875 0.328125 0.546875 0.53125q0.359375 0.1875 0.890625 0.1875q0.671875 0 1.171875 -0.28125q0.515625 -0.28125 0.8125 -0.6875q0.296875 -0.40625 0.328125 -0.796875l0.609375 0.703125q-0.046875 0.328125 -0.296875 0.734375q-0.234375 0.390625 -0.640625 0.75q-0.40625 0.359375 -0.953125 0.609375q-0.546875 0.234375 -1.234375 0.234375q-0.859375 0 -1.515625 -0.328125q-0.640625 -0.34375 -1.0 -0.90625q-0.34375 -0.578125 -0.34375 -1.28125q0 -0.671875 0.265625 -1.1875q0.265625 -0.53125 0.765625 -0.875q0.5 -0.34375 1.203125 -0.515625q0.703125 -0.1875 1.5625 -0.1875l1.6875 0zm6.84375 4.09375q0.515625 0 0.953125 -0.203125q0.4375 -0.21875 0.71875 -0.59375q0.28125 -0.375 0.328125 -0.84375l1.375 0q-0.046875 0.75 -0.515625 1.390625q-0.453125 0.640625 -1.203125 1.046875q-0.75 0.390625 -1.65625 0.390625q-0.953125 0 -1.65625 -0.328125q-0.703125 -0.34375 -1.171875 -0.921875q-0.46875 -0.59375 -0.703125 -1.359375q-0.21875 -0.765625 -0.21875 -1.609375l0 -0.328125q0 -0.859375 0.21875 -1.609375q0.234375 -0.765625 0.703125 -1.34375q0.46875 -0.59375 1.171875 -0.921875q0.703125 -0.34375 1.65625 -0.34375q1.0 0 1.734375 0.40625q0.75 0.390625 1.171875 1.09375q0.421875 0.6875 0.46875 1.5625l-1.375 0q-0.046875 -0.53125 -0.296875 -0.953125q-0.25 -0.421875 -0.6875 -0.671875q-0.4375 -0.25 -1.015625 -0.25q-0.65625 0 -1.109375 0.265625q-0.453125 0.25 -0.71875 0.703125q-0.25 0.4375 -0.375 0.96875q-0.109375 0.53125 -0.109375 1.09375l0 0.328125q0 0.546875 0.109375 1.09375q0.109375 0.53125 0.375 0.96875q0.265625 0.4375 0.703125 0.703125q0.453125 0.265625 1.125 0.265625zm4.609375 -3.109375l0 -0.171875q0 -0.921875 0.265625 -1.703125q0.265625 -0.78125 0.765625 -1.359375q0.5 -0.59375 1.203125 -0.90625q0.71875 -0.328125 1.609375 -0.328125q0.890625 0 1.59375 0.328125q0.71875 0.3125 1.21875 0.90625q0.515625 0.578125 0.78125 1.359375q0.265625 0.78125 0.265625 1.703125l0 0.171875q0 0.921875 -0.265625 1.703125q-0.265625 0.78125 -0.78125 1.359375q-0.5 0.578125 -1.203125 0.90625q-0.703125 0.328125 -1.59375 0.328125q-0.890625 0 -1.609375 -0.328125q-0.703125 -0.328125 -1.21875 -0.90625q-0.5 -0.578125 -0.765625 -1.359375q-0.265625 -0.78125 -0.265625 -1.703125zm1.453125 -0.171875l0 0.171875q0 0.640625 0.140625 1.203125q0.15625 0.546875 0.453125 0.984375q0.296875 0.421875 0.75 0.671875q0.453125 0.25 1.0625 0.25q0.59375 0 1.03125 -0.25q0.453125 -0.25 0.75 -0.671875q0.296875 -0.4375 0.453125 -0.984375q0.15625 -0.5625 0.15625 -1.203125l0 -0.171875q0 -0.625 -0.15625 -1.1875q-0.15625 -0.5625 -0.453125 -0.984375q-0.296875 -0.4375 -0.75 -0.6875q-0.453125 -0.25 -1.046875 -0.25q-0.59375 0 -1.046875 0.25q-0.453125 0.25 -0.75 0.6875q-0.296875 0.421875 -0.453125 0.984375q-0.140625 0.5625 -0.140625 1.1875z" fill-rule="nonzero"/><path fill="#000000" fill-opacity="0.0" d="m1.0839895 0.843832l306.77167 0l0 30.614174l-306.77167 0z" fill-rule="evenodd"/><path fill="#000000" d="m17.693365 19.089668l2.34375 0q-0.078125 1.15625 -0.640625 2.046875q-0.546875 0.890625 -1.546875 1.390625q-1.0 0.5 -2.390626 0.5q-1.09375 0 -1.96875 -0.375q-0.859375 -0.390625 -1.484375 -1.09375q-0.609375 -0.71875 -0.9375 -1.71875q-0.3125 -1.015625 -0.3125 -2.265625l0 -0.78125q0 -1.25 0.328125 -2.265625q0.34375 -1.015625 0.953125 -1.71875q0.625 -0.71875 1.484375 -1.09375q0.875 -0.390625 1.953125 -0.390625q1.421876 0 2.390626 0.515625q0.984375 0.515625 1.53125 1.421875q0.546875 0.90625 0.65625 2.0625l-2.34375 0q-0.046875 -0.6875 -0.28125 -1.15625q-0.234375 -0.484375 -0.703125 -0.734375q-0.46875 -0.25 -1.250001 -0.25q-0.59375 0 -1.03125 0.21875q-0.4375 0.21875 -0.734375 0.671875q-0.296875 0.4375 -0.4375 1.125q-0.140625 0.671875 -0.140625 1.578125l0 0.796875q0 0.890625 0.125 1.5625q0.140625 0.65625 0.40625 1.125q0.28125 0.453125 0.71875 0.6875q0.453125 0.21875 1.078125 0.21875q0.73437595 0 1.203126 -0.234375q0.484375 -0.234375 0.734375 -0.6875q0.25 -0.46875 0.296875 -1.15625zm3.375 -0.359375l0 -0.171875q0 -0.921875 0.265625 -1.703125q0.265625 -0.796875 0.765625 -1.375q0.515625 -0.578125 1.25 -0.890625q0.75 -0.328125 1.71875 -0.328125q0.953125 0 1.703125 0.328125q0.75 0.3125 1.265625 0.890625q0.515625 0.578125 0.78125 1.375q0.265625 0.78125 0.265625 1.703125l0 0.171875q0 0.921875 -0.265625 1.703125q-0.265625 0.78125 -0.78125 1.375q-0.515625 0.578125 -1.265625 0.90625q-0.734375 0.3125 -1.6875 0.3125q-0.96875 0 -1.71875 -0.3125q-0.734375 -0.328125 -1.25 -0.90625q-0.515625 -0.59375 -0.78125 -1.375q-0.265625 -0.78125 -0.265625 -1.703125zm2.25 -0.171875l0 0.171875q0 0.53125 0.09375 1.0q0.09375 0.453125 0.296875 0.796875q0.21875 0.34375 0.546875 0.546875q0.34375 0.1875 0.828125 0.1875q0.46875 0 0.796875 -0.1875q0.34375 -0.203125 0.546875 -0.546875q0.203125 -0.34375 0.296875 -0.796875q0.09375 -0.46875 0.09375 -1.0l0 -0.171875q0 -0.515625 -0.09375 -0.96875q-0.09375 -0.453125 -0.3125 -0.8125q-0.203125 -0.359375 -0.546875 -0.5625q-0.328125 -0.203125 -0.796875 -0.203125q-0.484375 0 -0.8125 0.203125q-0.328125 0.203125 -0.546875 0.5625q-0.203125 0.359375 -0.296875 0.8125q-0.09375 0.453125 -0.09375 0.96875zm9.390623 -2.390625l0 6.703125l-2.249998 0l0 -8.453125l2.109373 0l0.140625 1.75zm-0.3125 2.171875l-0.6249981 0q0 -0.875 0.21875 -1.625q0.2187481 -0.75 0.6249981 -1.296875q0.421875 -0.546875 1.03125 -0.84375q0.625 -0.3125 1.4375 -0.3125q0.5625 0 1.03125 0.171875q0.46875 0.15625 0.8125 0.515625q0.34375 0.359375 0.53125 0.921875q0.1875 0.5625 0.1875 1.359375l0 5.640625l-2.25 0l0 -5.390625q0 -0.578125 -0.15625 -0.890625q-0.15625 -0.3125 -0.453125 -0.4375q-0.28125 -0.125 -0.671875 -0.125q-0.4375 0 -0.765625 0.1875q-0.328125 0.171875 -0.546875 0.484375q-0.203125 0.3125 -0.3125 0.734375q-0.09375 0.421875 -0.09375 0.90625zm5.03125 -0.25l-0.796875 0.09375q0 -0.828125 0.203125 -1.53125q0.203125 -0.71875 0.609375 -1.25q0.421875 -0.546875 1.03125 -0.84375q0.609375 -0.296875 1.40625 -0.296875q0.609375 0 1.109375 0.171875q0.5 0.171875 0.84375 0.5625q0.359375 0.375 0.546875 0.984375q0.203125 0.609375 0.203125 1.484375l0 5.40625l-2.265625 0l0 -5.40625q0 -0.578125 -0.15625 -0.890625q-0.140625 -0.3125 -0.4375 -0.421875q-0.28125 -0.125 -0.671875 -0.125q-0.40625 0 -0.71875 0.15625q-0.296875 0.15625 -0.5 0.4375q-0.203125 0.28125 -0.3125 0.65625q-0.09375 0.375 -0.09375 0.8125zm9.140625 -2.046875l0 10.078125l-2.25 0l0 -11.703125l2.09375 0l0.15625 1.625zm5.359375 2.5l0 0.171875q0 0.921875 -0.21875 1.71875q-0.21875 0.78125 -0.640625 1.359375q-0.40625 0.578125 -1.015625 0.90625q-0.609375 0.328125 -1.40625 0.328125q-0.78125 0 -1.359375 -0.3125q-0.5625 -0.3125 -0.953125 -0.875q-0.375 -0.578125 -0.609375 -1.328125q-0.234375 -0.75 -0.359375 -1.609375l0 -0.421875q0.125 -0.921875 0.359375 -1.6875q0.234375 -0.78125 0.609375 -1.34375q0.390625 -0.5625 0.953125 -0.875q0.578125 -0.3125 1.34375 -0.3125q0.796875 0 1.40625 0.3125q0.625 0.296875 1.03125 0.875q0.421875 0.5625 0.640625 1.359375q0.21875 0.78125 0.21875 1.734375zm-2.25 0.171875l0 -0.171875q0 -0.53125 -0.09375 -0.984375q-0.09375 -0.46875 -0.296875 -0.8125q-0.1875 -0.34375 -0.5 -0.53125q-0.296875 -0.1875 -0.734375 -0.1875q-0.46875 0 -0.796875 0.15625q-0.3125 0.140625 -0.515625 0.421875q-0.203125 0.28125 -0.3125 0.671875q-0.09375 0.390625 -0.125 0.875l0 1.09375q0.046875 0.578125 0.21875 1.03125q0.1875 0.453125 0.5625 0.71875q0.375 0.265625 0.984375 0.265625q0.4375 0 0.734375 -0.1875q0.3125 -0.203125 0.5 -0.546875q0.203125 -0.359375 0.28125 -0.8125q0.09375 -0.46875 0.09375 -1.0zm3.28125 0.015625l0 -0.171875q0 -0.921875 0.265625 -1.703125q0.265625 -0.796875 0.765625 -1.375q0.515625 -0.578125 1.25 -0.890625q0.75 -0.328125 1.71875 -0.328125q0.953125 0 1.703125 0.328125q0.75 0.3125 1.265625 0.890625q0.515625 0.578125 0.78125 1.375q0.265625 0.78125 0.265625 1.703125l0 0.171875q0 0.921875 -0.265625 1.703125q-0.265625 0.78125 -0.78125 1.375q-0.515625 0.578125 -1.265625 0.90625q-0.734375 0.3125 -1.6875 0.3125q-0.96875 0 -1.71875 -0.3125q-0.734375 -0.328125 -1.25 -0.90625q-0.515625 -0.59375 -0.78125 -1.375q-0.265625 -0.78125 -0.265625 -1.703125zm2.25 -0.171875l0 0.171875q0 0.53125 0.09375 1.0q0.09375 0.453125 0.296875 0.796875q0.21875 0.34375 0.546875 0.546875q0.34375 0.1875 0.828125 0.1875q0.46875 0 0.796875 -0.1875q0.34375 -0.203125 0.546875 -0.546875q0.203125 -0.34375 0.296875 -0.796875q0.09375 -0.46875 0.09375 -1.0l0 -0.171875q0 -0.515625 -0.09375 -0.96875q-0.09375 -0.453125 -0.3125 -0.8125q-0.203125 -0.359375 -0.546875 -0.5625q-0.328125 -0.203125 -0.796875 -0.203125q-0.484375 0 -0.8125 0.203125q-0.328125 0.203125 -0.546875 0.5625q-0.203125 0.359375 -0.296875 0.8125q-0.09375 0.453125 -0.09375 0.96875zm11.718754 1.96875q0 -0.234375 -0.140625 -0.421875q-0.140625 -0.203125 -0.53125 -0.375q-0.375 -0.171875 -1.078125 -0.3125q-0.640625 -0.140625 -1.2031288 -0.34375q-0.546875 -0.21875 -0.953125 -0.515625q-0.390625 -0.3125 -0.625 -0.734375q-0.21875 -0.421875 -0.21875 -0.953125q0 -0.53125 0.21875 -1.0q0.234375 -0.46875 0.671875 -0.828125q0.4375 -0.375 1.0625038 -0.578125q0.625 -0.203125 1.421875 -0.203125q1.09375 0 1.890625 0.359375q0.796875 0.34375 1.21875 0.953125q0.421875 0.609375 0.421875 1.390625l-2.25 0q0 -0.328125 -0.140625 -0.578125q-0.125 -0.265625 -0.421875 -0.421875q-0.28125 -0.15625 -0.734375 -0.15625q-0.375 0 -0.65625 0.140625q-0.265625 0.125 -0.40625 0.34375q-0.140625 0.203125 -0.140625 0.46875q0 0.1875 0.078125 0.34375q0.078125 0.15625 0.265625 0.28125q0.1875 0.125 0.484375 0.234375q0.3125 0.09375 0.75 0.1875q0.921875 0.1875 1.640625 0.484375q0.71875 0.296875 1.140625 0.8125q0.421875 0.515625 0.421875 1.34375q0 0.5625 -0.25 1.03125q-0.25 0.46875 -0.71875 0.8125q-0.46875 0.34375 -1.125 0.546875q-0.65625 0.1875 -1.46875 0.1875q-1.171875 0 -2.0000038 -0.421875q-0.8125 -0.421875 -1.234375 -1.078125q-0.40625 -0.65625 -0.40625 -1.34375l2.1250038 0q0.015625 0.46875 0.234375 0.75q0.234375 0.28125 0.578125 0.40625q0.34375 0.125 0.75 0.125q0.4375 0 0.71875 -0.125q0.296875 -0.125 0.453125 -0.328125q0.15625 -0.203125 0.15625 -0.484375zm6.015625 -6.109375l0 8.453125l-2.25 0l0 -8.453125l2.25 0zm-2.390625 -2.203125q0 -0.5 0.34375 -0.8125q0.34375 -0.328125 0.921875 -0.328125q0.5625 0 0.90625 0.328125q0.359375 0.3125 0.359375 0.8125q0 0.484375 -0.359375 0.8125q-0.34375 0.3125 -0.90625 0.3125q-0.578125 0 -0.921875 -0.3125q-0.34375 -0.328125 -0.34375 -0.8125zm8.390625 2.203125l0 1.59375l-4.921875 0l0 -1.59375l4.921875 0zm-3.703125 -2.09375l2.25 0l0 8.0q0 0.359375 0.09375 0.5625q0.109375 0.1875 0.296875 0.265625q0.203125 0.078125 0.5 0.078125q0.203125 0 0.375 -0.015625q0.171875 -0.03125 0.28125 -0.046875l0.015625 1.65625q-0.296875 0.09375 -0.640625 0.140625q-0.328125 0.0625 -0.734375 0.0625q-0.734375 0 -1.296875 -0.25q-0.546875 -0.25 -0.84375 -0.796875q-0.296875 -0.546875 -0.296875 -1.4375l0 -8.21875zm7.3515625 2.09375l0 8.453125l-2.25 0l0 -8.453125l2.25 0zm-2.390625 -2.203125q0 -0.5 0.34375 -0.8125q0.34375 -0.328125 0.921875 -0.328125q0.5625 0 0.90625 0.328125q0.359375 0.3125 0.359375 0.8125q0 0.484375 -0.359375 0.8125q-0.34375 0.3125 -0.90625 0.3125q-0.578125 0 -0.921875 -0.3125q-0.34375 -0.328125 -0.34375 -0.8125zm3.890625 6.515625l0 -0.171875q0 -0.921875 0.265625 -1.703125q0.265625 -0.796875 0.765625 -1.375q0.515625 -0.578125 1.25 -0.890625q0.75 -0.328125 1.71875 -0.328125q0.953125 0 1.703125 0.328125q0.75 0.3125 1.265625 0.890625q0.515625 0.578125 0.78125 1.375q0.265625 0.78125 0.265625 1.703125l0 0.171875q0 0.921875 -0.265625 1.703125q-0.265625 0.78125 -0.78125 1.375q-0.515625 0.578125 -1.265625 0.90625q-0.734375 0.3125 -1.6875 0.3125q-0.96875 0 -1.71875 -0.3125q-0.734375 -0.328125 -1.25 -0.90625q-0.515625 -0.59375 -0.78125 -1.375q-0.265625 -0.78125 -0.265625 -1.703125zm2.25 -0.171875l0 0.171875q0 0.53125 0.09375 1.0q0.09375 0.453125 0.296875 0.796875q0.21875 0.34375 0.546875 0.546875q0.34375 0.1875 0.828125 0.1875q0.46875 0 0.796875 -0.1875q0.34375 -0.203125 0.546875 -0.546875q0.203125 -0.34375 0.296875 -0.796875q0.09375 -0.46875 0.09375 -1.0l0 -0.171875q0 -0.515625 -0.09375 -0.96875q-0.09375 -0.453125 -0.3125 -0.8125q-0.203125 -0.359375 -0.546875 -0.5625q-0.328125 -0.203125 -0.796875 -0.203125q-0.484375 0 -0.8125 0.203125q-0.328125 0.203125 -0.546875 0.5625q-0.203125 0.359375 -0.296875 0.8125q-0.09375 0.453125 -0.09375 0.96875zm9.34375 -2.34375l0 6.65625l-2.25 0l0 -8.453125l2.109375 0l0.140625 1.796875zm-0.328125 2.125l-0.609375 0q0 -0.9375 0.234375 -1.6875q0.25 -0.75 0.6875 -1.28125q0.4375 -0.546875 1.046875 -0.828125q0.609375 -0.28125 1.359375 -0.28125q0.59375 0 1.078125 0.171875q0.5 0.171875 0.84375 0.546875q0.359375 0.375 0.546875 1.0q0.203125 0.609375 0.203125 1.5l0 5.390625l-2.265625 0l0 -5.40625q0 -0.5625 -0.15625 -0.875q-0.15625 -0.3125 -0.46875 -0.4375q-0.296875 -0.125 -0.734375 -0.125q-0.453125 0 -0.78125 0.1875q-0.328125 0.171875 -0.546875 0.484375q-0.21875 0.3125 -0.328125 0.734375q-0.109375 0.421875 -0.109375 0.90625zm10.7109375 0.390625l0 -0.171875q0 -0.921875 0.265625 -1.703125q0.265625 -0.796875 0.765625 -1.375q0.515625 -0.578125 1.25 -0.890625q0.75 -0.328125 1.71875 -0.328125q0.953125 0 1.703125 0.328125q0.75 0.3125 1.265625 0.890625q0.515625 0.578125 0.78125 1.375q0.265625 0.78125 0.265625 1.703125l0 0.171875q0 0.921875 -0.265625 1.703125q-0.265625 0.78125 -0.78125 1.375q-0.515625 0.578125 -1.265625 0.90625q-0.734375 0.3125 -1.6875 0.3125q-0.96875 0 -1.71875 -0.3125q-0.734375 -0.328125 -1.25 -0.90625q-0.515625 -0.59375 -0.78125 -1.375q-0.265625 -0.78125 -0.265625 -1.703125zm2.25 -0.171875l0 0.171875q0 0.53125 0.09375 1.0q0.09375 0.453125 0.296875 0.796875q0.21875 0.34375 0.546875 0.546875q0.34375 0.1875 0.828125 0.1875q0.46875 0 0.796875 -0.1875q0.34375 -0.203125 0.546875 -0.546875q0.203125 -0.34375 0.296875 -0.796875q0.09375 -0.46875 0.09375 -1.0l0 -0.171875q0 -0.515625 -0.09375 -0.96875q-0.09375 -0.453125 -0.3125 -0.8125q-0.203125 -0.359375 -0.546875 -0.5625q-0.328125 -0.203125 -0.796875 -0.203125q-0.484375 0 -0.8125 0.203125q-0.328125 0.203125 -0.546875 0.5625q-0.203125 0.359375 -0.296875 0.8125q-0.09375 0.453125 -0.09375 0.96875zm10.015625 4.3125l-2.265625 0l0 -9.203125q0 -0.96875 0.375 -1.625q0.375 -0.65625 1.0625 -1.0q0.703125 -0.34375 1.65625 -0.34375q0.3125 0 0.59375 0.046875q0.296875 0.046875 0.5625 0.109375l-0.015625 1.6875q-0.15625 -0.03125 -0.328125 -0.046875q-0.15625 -0.015625 -0.375 -0.015625q-0.40625 0 -0.6875 0.140625q-0.28125 0.125 -0.4375 0.390625q-0.140625 0.265625 -0.140625 0.65625l0 9.203125zm1.6875 -8.453125l0 1.59375l-5.21875 0l0 -1.59375l5.21875 0zm9.031242 8.609375q-0.984375 0 -1.7656174 -0.3125q-0.78125 -0.328125 -1.328125 -0.890625q-0.53125 -0.5625 -0.828125 -1.296875q-0.28125 -0.75 -0.28125 -1.59375l0 -0.3125q0 -0.96875 0.265625 -1.765625q0.28125 -0.796875 0.78125 -1.375q0.515625 -0.59375 1.25 -0.90625q0.734375 -0.3125 1.6562424 -0.3125q0.90625 0 1.59375 0.296875q0.703125 0.296875 1.171875 0.84375q0.46875 0.546875 0.703125 1.3125q0.25 0.75 0.25 1.6875l0 0.9375l-6.7187424 0l0 -1.5l4.5156174 0l0 -0.171875q0 -0.46875 -0.171875 -0.84375q-0.171875 -0.375 -0.515625 -0.59375q-0.328125 -0.21875 -0.84375 -0.21875q-0.453125 0 -0.78125 0.203125q-0.31249237 0.1875 -0.5156174 0.546875q-0.1875 0.34375 -0.296875 0.828125q-0.09375 0.46875 -0.09375 1.03125l0 0.3125q0 0.5 0.140625 0.9375q0.15625 0.421875 0.421875 0.734375q0.265625 0.3125 0.6562424 0.484375q0.390625 0.171875 0.875 0.171875q0.609375 0 1.140625 -0.234375q0.53125 -0.234375 0.90625 -0.71875l1.09375 1.1875q-0.265625 0.375 -0.71875 0.734375q-0.453125 0.34375 -1.09375 0.578125q-0.640625 0.21875 -1.46875 0.21875zm6.5625 -8.609375l1.40625 2.5625l1.4375 -2.5625l2.390625 0l-2.390625 4.125l2.5 4.328125l-2.40625 0l-1.515625 -2.71875l-1.53125 2.71875l-2.40625 0l2.5 -4.328125l-2.390625 -4.125l2.40625 0zm10.46875 0l0 1.59375l-4.921875 0l0 -1.59375l4.921875 0zm-3.703125 -2.09375l2.25 0l0 8.0q0 0.359375 0.09375 0.5625q0.109375 0.1875 0.296875 0.265625q0.203125 0.078125 0.5 0.078125q0.203125 0 0.375 -0.015625q0.171875 -0.03125 0.28125 -0.046875l0.015625 1.65625q-0.296875 0.09375 -0.640625 0.140625q-0.328125 0.0625 -0.734375 0.0625q-0.734375 0 -1.296875 -0.25q-0.546875 -0.25 -0.84375 -0.796875q-0.296875 -0.546875 -0.296875 -1.4375l0 -8.21875zm8.8671875 10.703125q-0.984375 0 -1.765625 -0.3125q-0.78125 -0.328125 -1.328125 -0.890625q-0.53125 -0.5625 -0.828125 -1.296875q-0.28125 -0.75 -0.28125 -1.59375l0 -0.3125q0 -0.96875 0.265625 -1.765625q0.28125 -0.796875 0.78125 -1.375q0.515625 -0.59375 1.25 -0.90625q0.734375 -0.3125 1.65625 -0.3125q0.90625 0 1.59375 0.296875q0.703125 0.296875 1.171875 0.84375q0.46875 0.546875 0.703125 1.3125q0.25 0.75 0.25 1.6875l0 0.9375l-6.71875 0l0 -1.5l4.515625 0l0 -0.171875q0 -0.46875 -0.171875 -0.84375q-0.171875 -0.375 -0.515625 -0.59375q-0.328125 -0.21875 -0.84375 -0.21875q-0.453125 0 -0.78125 0.203125q-0.3125 0.1875 -0.515625 0.546875q-0.1875 0.34375 -0.296875 0.828125q-0.09375 0.46875 -0.09375 1.03125l0 0.3125q0 0.5 0.140625 0.9375q0.15625 0.421875 0.421875 0.734375q0.265625 0.3125 0.65625 0.484375q0.390625 0.171875 0.875 0.171875q0.609375 0 1.140625 -0.234375q0.53125 -0.234375 0.90625 -0.71875l1.09375 1.1875q-0.265625 0.375 -0.71875 0.734375q-0.453125 0.34375 -1.09375 0.578125q-0.640625 0.21875 -1.46875 0.21875zm7.0 -6.765625l0 6.609375l-2.25 0l0 -8.453125l2.125 0l0.125 1.84375zm2.546875 -1.90625l-0.03125 2.09375q-0.171875 -0.03125 -0.40625 -0.046875q-0.21875 -0.015625 -0.40625 -0.015625q-0.484375 0 -0.828125 0.125q-0.34375 0.109375 -0.578125 0.34375q-0.234375 0.234375 -0.34375 0.578125q-0.109375 0.328125 -0.125 0.765625l-0.453125 -0.140625q0 -0.828125 0.15625 -1.515625q0.171875 -0.6875 0.484375 -1.203125q0.3125 -0.515625 0.765625 -0.796875q0.46875 -0.28125 1.0625 -0.28125q0.1875 0 0.375 0.03125q0.203125 0.015625 0.328125 0.0625zm3.4375 0.0625l0 8.453125l-2.25 0l0 -8.453125l2.25 0zm-2.390625 -2.203125q0 -0.5 0.34375 -0.8125q0.34375 -0.328125 0.921875 -0.328125q0.5625 0 0.90625 0.328125q0.359375 0.3125 0.359375 0.8125q0 0.484375 -0.359375 0.8125q-0.34375 0.3125 -0.90625 0.3125q-0.578125 0 -0.921875 -0.3125q-0.34375 -0.328125 -0.34375 -0.8125zm3.890625 6.515625l0 -0.171875q0 -0.921875 0.265625 -1.703125q0.265625 -0.796875 0.765625 -1.375q0.515625 -0.578125 1.25 -0.890625q0.75 -0.328125 1.71875 -0.328125q0.953125 0 1.703125 0.328125q0.75 0.3125 1.265625 0.890625q0.515625 0.578125 0.78125 1.375q0.265625 0.78125 0.265625 1.703125l0 0.171875q0 0.921875 -0.265625 1.703125q-0.265625 0.78125 -0.78125 1.375q-0.515625 0.578125 -1.265625 0.90625q-0.734375 0.3125 -1.6875 0.3125q-0.96875 0 -1.71875 -0.3125q-0.734375 -0.328125 -1.25 -0.90625q-0.515625 -0.59375 -0.78125 -1.375q-0.265625 -0.78125 -0.265625 -1.703125zm2.25 -0.171875l0 0.171875q0 0.53125 0.09375 1.0q0.09375 0.453125 0.296875 0.796875q0.21875 0.34375 0.546875 0.546875q0.34375 0.1875 0.828125 0.1875q0.46875 0 0.796875 -0.1875q0.34375 -0.203125 0.546875 -0.546875q0.203125 -0.34375 0.296875 -0.796875q0.09375 -0.46875 0.09375 -1.0l0 -0.171875q0 -0.515625 -0.09375 -0.96875q-0.09375 -0.453125 -0.3125 -0.8125q-0.203125 -0.359375 -0.546875 -0.5625q-0.328125 -0.203125 -0.796875 -0.203125q-0.484375 0 -0.8125 0.203125q-0.328125 0.203125 -0.546875 0.5625q-0.203125 0.359375 -0.296875 0.8125q-0.09375 0.453125 -0.09375 0.96875zm9.390625 -2.296875l0 6.609375l-2.25 0l0 -8.453125l2.125 0l0.125 1.84375zm2.546875 -1.90625l-0.03125 2.09375q-0.171875 -0.03125 -0.40625 -0.046875q-0.21875 -0.015625 -0.40625 -0.015625q-0.484375 0 -0.828125 0.125q-0.34375 0.109375 -0.578125 0.34375q-0.234375 0.234375 -0.34375 0.578125q-0.109375 0.328125 -0.125 0.765625l-0.453125 -0.140625q0 -0.828125 0.15625 -1.515625q0.171875 -0.6875 0.484375 -1.203125q0.3125 -0.515625 0.765625 -0.796875q0.46875 -0.28125 1.0625 -0.28125q0.1875 0 0.375 0.03125q0.203125 0.015625 0.328125 0.0625zm7.4609375 6.328125l1.75 -6.265625l1.4375 0l-0.46875 2.453125l-1.75 6.0l-1.203125 0l0.234375 -2.1875zm-0.890625 -6.265625l1.25 6.25l0.125 2.203125l-1.40625 0l-2.140625 -8.453125l2.171875 0zm5.6875 6.15625l1.21875 -6.15625l2.1875 0l-2.140625 8.453125l-1.40625 0l0.140625 -2.296875zm-1.421875 -6.15625l1.75 6.21875l0.25 2.234375l-1.203125 0l-1.765625 -5.984375l-0.4375 -2.46875l1.40625 0zm10.515625 6.546875l0 -3.765625q0 -0.40625 -0.140625 -0.703125q-0.125 -0.296875 -0.40625 -0.453125q-0.265625 -0.171875 -0.703125 -0.171875q-0.375 0 -0.65625 0.140625q-0.265625 0.125 -0.421875 0.359375q-0.140625 0.234375 -0.140625 0.5625l-2.25 0q0 -0.546875 0.25 -1.03125q0.25 -0.484375 0.71875 -0.84375q0.484375 -0.375 1.140625 -0.578125q0.65625 -0.21875 1.484375 -0.21875q0.984375 0 1.75 0.328125q0.765625 0.328125 1.203125 0.984375q0.4375 0.65625 0.4375 1.640625l0 3.609375q0 0.703125 0.078125 1.140625q0.09375 0.4375 0.265625 0.765625l0 0.140625l-2.28125 0q-0.15625 -0.34375 -0.25 -0.859375q-0.078125 -0.53125 -0.078125 -1.046875zm0.296875 -3.25l0.015625 1.28125l-1.25 0q-0.453125 0 -0.78125 0.109375q-0.328125 0.09375 -0.546875 0.28125q-0.203125 0.171875 -0.296875 0.421875q-0.09375 0.234375 -0.09375 0.53125q0 0.28125 0.125 0.515625q0.140625 0.234375 0.390625 0.359375q0.25 0.125 0.578125 0.125q0.515625 0 0.890625 -0.203125q0.375 -0.203125 0.578125 -0.5q0.203125 -0.296875 0.21875 -0.5625l0.59375 0.953125q-0.125 0.328125 -0.34375 0.671875q-0.21875 0.34375 -0.546875 0.640625q-0.328125 0.296875 -0.796875 0.5q-0.453125 0.1875 -1.078125 0.1875q-0.8125 0 -1.46875 -0.328125q-0.640625 -0.328125 -1.03125 -0.890625q-0.375 -0.578125 -0.375 -1.3125q0 -0.671875 0.25 -1.1875q0.25 -0.515625 0.734375 -0.859375q0.5 -0.359375 1.234375 -0.546875q0.734375 -0.1875 1.703125 -0.1875l1.296875 0zm6.078125 -6.84375l0 12.0l-2.25 0l0 -12.0l2.25 0zm4.234375 0l0 12.0l-2.25 0l0 -12.0l2.25 0zm6.4375 9.65625q0 -0.234375 -0.140625 -0.421875q-0.140625 -0.203125 -0.53125 -0.375q-0.375 -0.171875 -1.078125 -0.3125q-0.640625 -0.140625 -1.203125 -0.34375q-0.546875 -0.21875 -0.953125 -0.515625q-0.390625 -0.3125 -0.625 -0.734375q-0.21875 -0.421875 -0.21875 -0.953125q0 -0.53125 0.21875 -1.0q0.234375 -0.46875 0.671875 -0.828125q0.4375 -0.375 1.0625 -0.578125q0.625 -0.203125 1.421875 -0.203125q1.09375 0 1.890625 0.359375q0.796875 0.34375 1.21875 0.953125q0.421875 0.609375 0.421875 1.390625l-2.25 0q0 -0.328125 -0.140625 -0.578125q-0.125 -0.265625 -0.421875 -0.421875q-0.28125 -0.15625 -0.734375 -0.15625q-0.375 0 -0.65625 0.140625q-0.265625 0.125 -0.40625 0.34375q-0.140625 0.203125 -0.140625 0.46875q0 0.1875 0.078125 0.34375q0.078125 0.15625 0.265625 0.28125q0.1875 0.125 0.484375 0.234375q0.3125 0.09375 0.75 0.1875q0.921875 0.1875 1.640625 0.484375q0.71875 0.296875 1.140625 0.8125q0.421875 0.515625 0.421875 1.34375q0 0.5625 -0.25 1.03125q-0.25 0.46875 -0.71875 0.8125q-0.46875 0.34375 -1.125 0.546875q-0.65625 0.1875 -1.46875 0.1875q-1.171875 0 -2.0 -0.421875q-0.8125 -0.421875 -1.234375 -1.078125q-0.40625 -0.65625 -0.40625 -1.34375l2.125 0q0.015625 0.46875 0.234375 0.75q0.234375 0.28125 0.578125 0.40625q0.34375 0.125 0.75 0.125q0.4375 0 0.71875 -0.125q0.296875 -0.125 0.453125 -0.328125q0.15625 -0.203125 0.15625 -0.484375z" fill-rule="nonzero"/></g></svg>